<svg width="1748" height="1261" viewBox="0 0 1748 1261" fill="none" xmlns="http://www.w3.org/2000/svg">
<path d="M0 0H1728V1117H0V0Z" fill="#B9DDE3"/>
<path d="M1098.81 562.062V728C1098.81 757.25 1090.06 780.625 1072.56 798.125C1055.19 815.625 1032 824.375 1003 824.375C974.125 824.375 952 815.875 936.625 798.875C921.375 781.875 913.75 757.438 913.75 725.562V562.062H989.875V725.375C989.875 741 995.438 748.812 1006.56 748.812C1017.31 748.812 1022.69 741 1022.69 725.375V562.062H1098.81ZM1139.88 818V633.5C1139.88 610.625 1146.81 591.938 1160.69 577.438C1174.56 562.938 1192.56 555.688 1214.69 555.688C1240.94 555.688 1261.12 567.75 1275.25 591.875C1283.88 578.875 1293.12 569.625 1303 564.125C1312.88 558.5 1325.06 555.688 1339.56 555.688C1362.56 555.688 1380.19 562.938 1392.44 577.438C1404.69 591.938 1410.81 612.812 1410.81 640.062V818H1334.69V651.5C1334.69 643.25 1334 637.812 1332.62 635.188C1331.38 632.438 1328.75 631.062 1324.75 631.062C1317.25 631.062 1313.5 637.438 1313.5 650.188V818H1237.38V651.5C1237.38 643.375 1236.69 637.938 1235.31 635.188C1233.94 632.438 1231.25 631.062 1227.25 631.062C1219.75 631.062 1216 637.875 1216 651.5V818H1139.88ZM1549.94 689.562V757.062H1528V818H1451.88V655.25C1451.88 623.75 1460.44 599.312 1477.56 581.938C1494.81 564.438 1519 555.688 1550.12 555.688C1580.12 555.688 1602.31 563.625 1616.69 579.5C1631.06 595.25 1638.25 619.625 1638.25 652.625V818H1562.12V657.688C1562.12 647.688 1560.94 640.75 1558.56 636.875C1556.19 633 1551.94 631.062 1545.81 631.062C1533.94 631.062 1528 639.938 1528 657.688V689.562H1549.94Z" fill="#171F2B" fill-opacity="0.09"/>
<path d="M1144.56 348.562V531H1068.44V275.062H1167.62C1211.12 275.062 1245.19 284.938 1269.81 304.688C1299.06 328.312 1313.69 360.375 1313.69 400.875C1313.69 439.625 1301.19 471.25 1276.19 495.75C1251.19 520.25 1219 532.5 1179.62 532.5C1175 532.5 1167.44 532.25 1156.94 531.75V456.562H1169.12C1213.5 456.562 1235.69 438 1235.69 400.875C1235.69 366 1213.88 348.562 1170.25 348.562H1144.56ZM1486.19 374.625V431.625H1436.5C1429.75 431.625 1424.94 432.625 1422.06 434.625C1419.31 436.625 1417.94 440 1417.94 444.75C1417.94 450.125 1419.37 453.688 1422.25 455.438C1425.12 457.062 1431 457.875 1439.87 457.875H1491.06V531H1431.25C1403.12 531 1381.62 524.312 1366.75 510.938C1351.87 497.438 1344.44 478 1344.44 452.625V352.312C1344.44 327.812 1351.44 308.812 1365.44 295.312C1379.56 281.812 1399.37 275.062 1424.87 275.062H1491.06V348.562H1442.5C1429.37 348.562 1422.81 352.812 1422.81 361.312C1422.81 366.312 1424.37 369.812 1427.5 371.812C1430.62 373.688 1436.19 374.625 1444.19 374.625H1486.19Z" fill="#171F2B" fill-opacity="0.09"/>
<path d="M826.188 1108V941.875C826.188 912.75 834.875 889.438 852.25 871.938C869.75 854.438 893 845.688 922 845.688C950.875 845.688 972.938 854.188 988.188 871.188C1003.56 888.188 1011.25 912.625 1011.25 944.5V1108H935.125V944.5C935.125 928.875 929.562 921.062 918.438 921.062C907.688 921.062 902.312 928.875 902.312 944.5V1108H826.188ZM1178.88 845.688C1215.12 845.688 1246.19 858.875 1272.06 885.25C1298.06 911.625 1311.06 943.188 1311.06 979.938C1311.06 1017.31 1298 1049.06 1271.88 1075.19C1245.75 1101.31 1214 1114.38 1176.62 1114.38C1139.5 1114.38 1107.81 1101.25 1081.56 1075C1055.31 1048.75 1042.19 1017.06 1042.19 979.938C1042.19 942.438 1055.38 910.688 1081.75 884.688C1108.25 858.688 1140.62 845.688 1178.88 845.688ZM1176.62 921.062C1161 921.062 1147.69 926.812 1136.69 938.312C1125.69 949.812 1120.19 963.688 1120.19 979.938C1120.19 996.188 1125.69 1010.06 1136.69 1021.56C1147.81 1033.06 1161.12 1038.81 1176.62 1038.81C1192.38 1038.81 1205.69 1033.12 1216.56 1021.75C1227.56 1010.25 1233.06 996.312 1233.06 979.938C1233.06 963.562 1227.56 949.688 1216.56 938.312C1205.69 926.812 1192.38 921.062 1176.62 921.062ZM1458.44 925.562V1108H1382.31V925.562H1324V852.062H1516.56V925.562H1458.44ZM1637.5 979.562V1047.06H1615.56V1108H1539.44V945.25C1539.44 913.75 1548 889.312 1565.12 871.938C1582.38 854.438 1606.56 845.688 1637.69 845.688C1667.69 845.688 1689.88 853.625 1704.25 869.5C1718.62 885.25 1725.81 909.625 1725.81 942.625V1108H1649.69V947.688C1649.69 937.688 1648.5 930.75 1646.12 926.875C1643.75 923 1639.5 921.062 1633.38 921.062C1621.5 921.062 1615.56 929.938 1615.56 947.688V979.562H1637.5Z" fill="#171F2B" fill-opacity="0.09"/>
<path d="M1429.47 223.522L1488.8 261.107C1493.17 263.877 1498.56 259.782 1497.41 254.602L1481.69 183.769L1534.02 136.186C1537.81 132.692 1535.86 126.067 1530.69 125.585L1461.72 119.441L1434.75 52.7043C1432.8 47.7652 1426.14 47.7652 1424.19 52.7043L1397.22 119.441L1328.25 125.585C1323.2 126.067 1321.13 132.692 1325.03 136.186L1377.37 183.769L1361.64 254.602C1360.5 259.782 1365.89 263.877 1370.25 261.107L1429.47 223.522Z" fill="#171F2B" fill-opacity="0.09"/>
</svg>
