<svg width="232" height="232" viewBox="0 0 232 232" fill="none" xmlns="http://www.w3.org/2000/svg">
<g filter="url(#filter0_d_6_417)">
<path d="M216 116C216 171.228 171.228 216 116 216C60.7715 216 16 171.228 16 116C16 60.7715 60.7715 16 116 16C171.228 16 216 60.7715 216 116ZM58.2095 116C58.2095 147.917 84.0832 173.791 116 173.791C147.917 173.791 173.791 147.917 173.791 116C173.791 84.0832 147.917 58.2095 116 58.2095C84.0832 58.2095 58.2095 84.0832 58.2095 116Z" fill="#171F2B"/>
</g>
<path d="M216 116C216 93.6903 208.54 72.0213 194.806 54.44C181.072 36.8586 161.853 24.3747 140.207 18.9742C118.561 13.5736 95.7306 15.5666 75.3476 24.636C54.9646 33.7054 38.1997 49.3304 27.7198 69.0254C17.2399 88.7205 13.647 111.354 17.5125 133.327C21.378 155.299 32.48 175.348 49.0523 190.283C65.6247 205.219 86.7157 214.184 108.97 215.753C131.225 217.321 153.364 211.402 171.868 198.938L148.286 163.931C137.593 171.134 124.798 174.554 111.937 173.648C99.0764 172.741 86.8879 167.56 77.3106 158.929C67.7334 150.297 61.3175 138.711 59.0836 126.013C56.8497 113.315 58.9261 100.235 64.9824 88.8532C71.0388 77.4713 80.7273 68.4415 92.5068 63.2003C104.286 57.959 117.48 56.8073 129.989 59.9283C142.499 63.0493 153.605 70.2638 161.542 80.4241C169.479 90.5845 173.791 103.107 173.791 116H216Z" fill="#FE6A01"/>
<path d="M102.734 120.781C102.734 122.198 102.401 123.396 101.734 124.375C101.078 125.344 100.177 126.078 99.0312 126.578C97.8958 127.068 96.6042 127.312 95.1562 127.312C93.7188 127.312 92.4219 127.068 91.2656 126.578C90.1198 126.078 89.2083 125.344 88.5312 124.375C87.8646 123.396 87.5312 122.198 87.5312 120.781C87.5312 119.833 87.7188 118.974 88.0938 118.203C88.4792 117.432 89.0104 116.771 89.6875 116.219C90.3646 115.656 91.1667 115.229 92.0938 114.938C93.0208 114.635 94.0312 114.484 95.125 114.484C96.5833 114.484 97.8854 114.75 99.0312 115.281C100.188 115.802 101.094 116.536 101.75 117.484C102.406 118.422 102.734 119.521 102.734 120.781ZM98.5781 120.531C98.5781 119.802 98.4323 119.172 98.1406 118.641C97.8594 118.099 97.4583 117.682 96.9375 117.391C96.4167 117.099 95.8125 116.953 95.125 116.953C94.4271 116.953 93.8177 117.099 93.2969 117.391C92.7865 117.682 92.3854 118.099 92.0938 118.641C91.8125 119.172 91.6719 119.802 91.6719 120.531C91.6719 121.271 91.8125 121.906 92.0938 122.438C92.3854 122.958 92.7917 123.359 93.3125 123.641C93.8333 123.922 94.4479 124.062 95.1562 124.062C95.8646 124.062 96.474 123.922 96.9844 123.641C97.4948 123.359 97.8854 122.958 98.1562 122.438C98.4375 121.906 98.5781 121.271 98.5781 120.531ZM102.234 110.25C102.234 111.396 101.932 112.417 101.328 113.312C100.724 114.198 99.8854 114.891 98.8125 115.391C97.75 115.891 96.5312 116.141 95.1562 116.141C93.7812 116.141 92.5521 115.891 91.4688 115.391C90.3958 114.891 89.5521 114.198 88.9375 113.312C88.3333 112.417 88.0312 111.396 88.0312 110.25C88.0312 108.896 88.3385 107.75 88.9531 106.812C89.5677 105.865 90.4062 105.146 91.4688 104.656C92.5417 104.167 93.7604 103.922 95.125 103.922C96.5104 103.922 97.7396 104.167 98.8125 104.656C99.8854 105.146 100.724 105.865 101.328 106.812C101.932 107.75 102.234 108.896 102.234 110.25ZM98.1094 110.422C98.1094 109.776 97.9896 109.214 97.75 108.734C97.5104 108.245 97.1667 107.865 96.7188 107.594C96.2812 107.323 95.75 107.188 95.125 107.188C94.5208 107.188 94 107.318 93.5625 107.578C93.125 107.839 92.7865 108.214 92.5469 108.703C92.3073 109.182 92.1875 109.755 92.1875 110.422C92.1875 111.078 92.3073 111.651 92.5469 112.141C92.7865 112.63 93.125 113.016 93.5625 113.297C94.0104 113.568 94.5417 113.703 95.1562 113.703C95.7708 113.703 96.2969 113.568 96.7344 113.297C97.1719 113.016 97.5104 112.63 97.75 112.141C97.9896 111.651 98.1094 111.078 98.1094 110.422ZM121.328 123.75V127H105.922V124.219L113.312 116.234C114.083 115.359 114.693 114.599 115.141 113.953C115.589 113.307 115.906 112.724 116.094 112.203C116.292 111.672 116.391 111.167 116.391 110.688C116.391 109.99 116.266 109.38 116.016 108.859C115.766 108.328 115.401 107.917 114.922 107.625C114.453 107.333 113.875 107.188 113.188 107.188C112.427 107.188 111.776 107.365 111.234 107.719C110.703 108.062 110.297 108.542 110.016 109.156C109.745 109.771 109.609 110.474 109.609 111.266H105.469C105.469 109.922 105.781 108.698 106.406 107.594C107.031 106.479 107.927 105.589 109.094 104.922C110.26 104.255 111.646 103.922 113.25 103.922C114.812 103.922 116.135 104.182 117.219 104.703C118.302 105.214 119.125 105.943 119.688 106.891C120.25 107.839 120.531 108.969 120.531 110.281C120.531 111.01 120.411 111.729 120.172 112.438C119.932 113.146 119.594 113.849 119.156 114.547C118.729 115.234 118.219 115.932 117.625 116.641C117.031 117.349 116.37 118.073 115.641 118.812L111.203 123.75H121.328ZM124.094 109.828V108.625C124.094 107.76 124.281 106.974 124.656 106.266C125.031 105.557 125.578 104.99 126.297 104.562C127.026 104.135 127.911 103.922 128.953 103.922C130.016 103.922 130.906 104.135 131.625 104.562C132.354 104.99 132.901 105.557 133.266 106.266C133.641 106.974 133.828 107.76 133.828 108.625V109.828C133.828 110.672 133.641 111.448 133.266 112.156C132.901 112.865 132.359 113.432 131.641 113.859C130.922 114.286 130.036 114.5 128.984 114.5C127.932 114.5 127.042 114.286 126.312 113.859C125.583 113.432 125.031 112.865 124.656 112.156C124.281 111.448 124.094 110.672 124.094 109.828ZM126.891 108.625V109.828C126.891 110.224 126.964 110.599 127.109 110.953C127.266 111.297 127.5 111.578 127.812 111.797C128.125 112.016 128.516 112.125 128.984 112.125C129.453 112.125 129.833 112.016 130.125 111.797C130.427 111.578 130.651 111.297 130.797 110.953C130.953 110.599 131.031 110.224 131.031 109.828V108.625C131.031 108.219 130.953 107.839 130.797 107.484C130.651 107.13 130.422 106.844 130.109 106.625C129.807 106.406 129.422 106.297 128.953 106.297C128.495 106.297 128.109 106.406 127.797 106.625C127.495 106.844 127.266 107.13 127.109 107.484C126.964 107.839 126.891 108.219 126.891 108.625ZM135.016 122.625V121.422C135.016 120.568 135.203 119.786 135.578 119.078C135.964 118.37 136.521 117.802 137.25 117.375C137.979 116.948 138.859 116.734 139.891 116.734C140.964 116.734 141.859 116.948 142.578 117.375C143.297 117.802 143.839 118.37 144.203 119.078C144.578 119.786 144.766 120.568 144.766 121.422V122.625C144.766 123.479 144.578 124.26 144.203 124.969C143.839 125.677 143.297 126.245 142.578 126.672C141.87 127.099 140.99 127.312 139.938 127.312C138.885 127.312 137.99 127.099 137.25 126.672C136.521 126.245 135.964 125.677 135.578 124.969C135.203 124.26 135.016 123.479 135.016 122.625ZM137.828 121.422V122.625C137.828 123.031 137.911 123.411 138.078 123.766C138.245 124.109 138.484 124.391 138.797 124.609C139.12 124.828 139.495 124.938 139.922 124.938C140.443 124.938 140.854 124.828 141.156 124.609C141.458 124.391 141.672 124.109 141.797 123.766C141.922 123.411 141.984 123.031 141.984 122.625V121.422C141.984 121.016 141.906 120.641 141.75 120.297C141.594 119.943 141.359 119.656 141.047 119.438C140.745 119.219 140.359 119.109 139.891 119.109C139.432 119.109 139.047 119.219 138.734 119.438C138.432 119.656 138.203 119.943 138.047 120.297C137.901 120.641 137.828 121.016 137.828 121.422ZM140.922 107.5L129.812 125.281L127.766 124.141L138.875 106.359L140.922 107.5Z" fill="black"/>
<defs>
<filter id="filter0_d_6_417" x="10" y="16" width="212" height="212" filterUnits="userSpaceOnUse" color-interpolation-filters="sRGB">
<feFlood flood-opacity="0" result="BackgroundImageFix"/>
<feColorMatrix in="SourceAlpha" type="matrix" values="0 0 0 0 0 0 0 0 0 0 0 0 0 0 0 0 0 0 127 0" result="hardAlpha"/>
<feOffset dy="6"/>
<feGaussianBlur stdDeviation="3"/>
<feComposite in2="hardAlpha" operator="out"/>
<feColorMatrix type="matrix" values="0 0 0 0 0 0 0 0 0 0 0 0 0 0 0 0 0 0 0.25 0"/>
<feBlend mode="normal" in2="BackgroundImageFix" result="effect1_dropShadow_6_417"/>
<feBlend mode="normal" in="SourceGraphic" in2="effect1_dropShadow_6_417" result="shape"/>
</filter>
</defs>
</svg>