<svg  viewBox="0 0 424 282" fill="none" xmlns="http://www.w3.org/2000/svg">
<path d="M167.703 112.016V153.5C167.703 160.812 165.516 166.656 161.141 171.031C156.797 175.406 151 177.594 143.75 177.594C136.531 177.594 131 175.469 127.156 171.219C123.344 166.969 121.438 160.859 121.438 152.891V112.016H140.469V152.844C140.469 156.75 141.859 158.703 144.641 158.703C147.328 158.703 148.672 156.75 148.672 152.844V112.016H167.703ZM177.969 176V129.875C177.969 124.156 179.703 119.484 183.172 115.859C186.641 112.234 191.141 110.422 196.672 110.422C203.234 110.422 208.281 113.438 211.812 119.469C213.969 116.219 216.281 113.906 218.75 112.531C221.219 111.125 224.266 110.422 227.891 110.422C233.641 110.422 238.047 112.234 241.109 115.859C244.172 119.484 245.703 124.703 245.703 131.516V176H226.672V134.375C226.672 132.312 226.5 130.953 226.156 130.297C225.844 129.609 225.188 129.266 224.188 129.266C222.312 129.266 221.375 130.859 221.375 134.047V176H202.344V134.375C202.344 132.344 202.172 130.984 201.828 130.297C201.484 129.609 200.812 129.266 199.812 129.266C197.938 129.266 197 130.969 197 134.375V176H177.969ZM280.484 143.891V160.766H275V176H255.969V135.312C255.969 127.438 258.109 121.328 262.391 116.984C266.703 112.609 272.75 110.422 280.531 110.422C288.031 110.422 293.578 112.406 297.172 116.375C300.766 120.312 302.562 126.406 302.562 134.656V176H283.531V135.922C283.531 133.422 283.234 131.688 282.641 130.719C282.047 129.75 280.984 129.266 279.453 129.266C276.484 129.266 275 131.484 275 135.922V143.891H280.484Z" fill="#171F2B" fill-opacity="0.24"/>
<path d="M179.141 62.3906V108H160.109V44.0156H184.906C195.781 44.0156 204.297 46.4844 210.453 51.4219C217.766 57.3281 221.422 65.3438 221.422 75.4688C221.422 85.1562 218.297 93.0625 212.047 99.1875C205.797 105.312 197.75 108.375 187.906 108.375C186.75 108.375 184.859 108.312 182.234 108.188V89.3906H185.281C196.375 89.3906 201.922 84.75 201.922 75.4688C201.922 66.75 196.469 62.3906 185.562 62.3906H179.141ZM264.547 68.9062V83.1562H252.125C250.438 83.1562 249.234 83.4062 248.516 83.9062C247.828 84.4062 247.484 85.25 247.484 86.4375C247.484 87.7812 247.844 88.6719 248.562 89.1094C249.281 89.5156 250.75 89.7188 252.969 89.7188H265.766V108H250.812C243.781 108 238.406 106.328 234.688 102.984C230.969 99.6094 229.109 94.75 229.109 88.4062V63.3281C229.109 57.2031 230.859 52.4531 234.359 49.0781C237.891 45.7031 242.844 44.0156 249.219 44.0156H265.766V62.3906H253.625C250.344 62.3906 248.703 63.4531 248.703 65.5781C248.703 66.8281 249.094 67.7031 249.875 68.2031C250.656 68.6719 252.047 68.9062 254.047 68.9062H264.547Z" fill="#171F2B" fill-opacity="0.24"/>
<path d="M99.5469 244V202.469C99.5469 195.188 101.719 189.359 106.062 184.984C110.438 180.609 116.25 178.422 123.5 178.422C130.719 178.422 136.234 180.547 140.047 184.797C143.891 189.047 145.812 195.156 145.812 203.125V244H126.781V203.125C126.781 199.219 125.391 197.266 122.609 197.266C119.922 197.266 118.578 199.219 118.578 203.125V244H99.5469ZM187.719 178.422C196.781 178.422 204.547 181.719 211.016 188.312C217.516 194.906 220.766 202.797 220.766 211.984C220.766 221.328 217.5 229.266 210.969 235.797C204.438 242.328 196.5 245.594 187.156 245.594C177.875 245.594 169.953 242.312 163.391 235.75C156.828 229.188 153.547 221.266 153.547 211.984C153.547 202.609 156.844 194.672 163.438 188.172C170.062 181.672 178.156 178.422 187.719 178.422ZM187.156 197.266C183.25 197.266 179.922 198.703 177.172 201.578C174.422 204.453 173.047 207.922 173.047 211.984C173.047 216.047 174.422 219.516 177.172 222.391C179.953 225.266 183.281 226.703 187.156 226.703C191.094 226.703 194.422 225.281 197.141 222.438C199.891 219.562 201.266 216.078 201.266 211.984C201.266 207.891 199.891 204.422 197.141 201.578C194.422 198.703 191.094 197.266 187.156 197.266ZM257.609 198.391V244H238.578V198.391H224V180.016H272.141V198.391H257.609ZM302.375 211.891V228.766H296.891V244H277.859V203.312C277.859 195.438 280 189.328 284.281 184.984C288.594 180.609 294.641 178.422 302.422 178.422C309.922 178.422 315.469 180.406 319.062 184.375C322.656 188.312 324.453 194.406 324.453 202.656V244H305.422V203.922C305.422 201.422 305.125 199.688 304.531 198.719C303.938 197.75 302.875 197.266 301.344 197.266C298.375 197.266 296.891 199.484 296.891 203.922V211.891H302.375Z" fill="#171F2B" fill-opacity="0.24"/>
<path d="M253.994 34.4128L265.694 41.8239C266.554 42.3702 267.617 41.5626 267.391 40.5412L264.291 26.5742L274.61 17.1915C275.357 16.5027 274.972 15.1963 273.954 15.1012L260.353 13.8898L255.035 0.730418C254.65 -0.243473 253.338 -0.243473 252.953 0.730418L247.635 13.8898L234.035 15.1012C233.039 15.1963 232.631 16.5027 233.401 17.1915L243.72 26.5742L240.62 40.5412C240.394 41.5626 241.457 42.3702 242.317 41.8239L253.994 34.4128Z" fill="#171F2B" fill-opacity="0.24"/>
</svg>
