<svg width="704" height="142" viewBox="0 0 704 142" fill="none" xmlns="http://www.w3.org/2000/svg">
<path d="M3.584 138.14C3.26667 138.14 2.96333 138.098 2.674 138.014C2.38467 137.93 2.114 137.809 1.862 137.65C1.61933 137.491 1.4 137.305 1.204 137.09C1.008 136.866 0.84 136.623 0.7 136.362L1.652 135.368C1.848 135.648 2.02533 135.872 2.184 136.04C2.352 136.208 2.51067 136.339 2.66 136.432C2.80933 136.525 2.95867 136.591 3.108 136.628C3.25733 136.656 3.416 136.67 3.584 136.67C3.92 136.67 4.214 136.595 4.466 136.446C4.718 136.287 4.914 136.073 5.054 135.802C5.194 135.531 5.264 135.223 5.264 134.878V129.6H3.472V128.2H8.288V129.6H6.776V135.018C6.776 135.466 6.69667 135.881 6.538 136.264C6.38867 136.637 6.16933 136.964 5.88 137.244C5.6 137.524 5.264 137.743 4.872 137.902C4.48933 138.061 4.06 138.14 3.584 138.14ZM12.1212 138.14C11.5145 138.14 10.9592 137.972 10.4552 137.636C9.96049 137.3 9.56382 136.843 9.26516 136.264C8.96649 135.685 8.81716 135.032 8.81716 134.304C8.81716 133.567 8.96649 132.913 9.26516 132.344C9.57316 131.765 9.98382 131.313 10.4972 130.986C11.0198 130.659 11.6032 130.496 12.2472 130.496C12.6298 130.496 12.9798 130.552 13.2972 130.664C13.6145 130.776 13.8898 130.935 14.1232 131.14C14.3658 131.336 14.5618 131.565 14.7112 131.826C14.8698 132.087 14.9678 132.367 15.0052 132.666L14.6832 132.554V130.65H16.1392V138H14.6832V136.25L15.0192 136.152C14.9632 136.404 14.8465 136.651 14.6692 136.894C14.5012 137.127 14.2818 137.337 14.0112 137.524C13.7498 137.711 13.4558 137.86 13.1292 137.972C12.8118 138.084 12.4758 138.14 12.1212 138.14ZM12.4992 136.81C12.9378 136.81 13.3252 136.703 13.6612 136.488C13.9972 136.273 14.2585 135.979 14.4452 135.606C14.6412 135.223 14.7392 134.789 14.7392 134.304C14.7392 133.828 14.6412 133.403 14.4452 133.03C14.2585 132.657 13.9972 132.363 13.6612 132.148C13.3252 131.933 12.9378 131.826 12.4992 131.826C12.0698 131.826 11.6872 131.933 11.3512 132.148C11.0245 132.363 10.7632 132.657 10.5672 133.03C10.3805 133.403 10.2872 133.828 10.2872 134.304C10.2872 134.789 10.3805 135.223 10.5672 135.606C10.7632 135.979 11.0245 136.273 11.3512 136.488C11.6872 136.703 12.0698 136.81 12.4992 136.81ZM18.1525 138V130.65H19.5945V132.162L19.3425 132.33C19.4359 132.003 19.6179 131.705 19.8885 131.434C20.1592 131.154 20.4812 130.93 20.8545 130.762C21.2279 130.585 21.6105 130.496 22.0025 130.496C22.5625 130.496 23.0292 130.608 23.4025 130.832C23.7759 131.047 24.0559 131.378 24.2425 131.826C24.4292 132.274 24.5225 132.839 24.5225 133.52V138H23.0805V133.618C23.0805 133.198 23.0245 132.853 22.9125 132.582C22.8005 132.302 22.6279 132.101 22.3945 131.98C22.1612 131.849 21.8719 131.793 21.5265 131.812C21.2465 131.812 20.9899 131.859 20.7565 131.952C20.5232 132.036 20.3179 132.157 20.1405 132.316C19.9725 132.475 19.8372 132.661 19.7345 132.876C19.6412 133.081 19.5945 133.305 19.5945 133.548V138H18.8805C18.7592 138 18.6379 138 18.5165 138C18.3952 138 18.2739 138 18.1525 138ZM29.9087 138.14C29.1527 138.14 28.4807 137.981 27.8927 137.664C27.314 137.337 26.8567 136.894 26.5207 136.334C26.194 135.774 26.0307 135.13 26.0307 134.402C26.0307 133.823 26.124 133.296 26.3107 132.82C26.4974 132.344 26.754 131.933 27.0807 131.588C27.4167 131.233 27.8134 130.963 28.2707 130.776C28.7374 130.58 29.2414 130.482 29.7827 130.482C30.2587 130.482 30.702 130.575 31.1127 130.762C31.5234 130.939 31.878 131.187 32.1767 131.504C32.4847 131.821 32.718 132.199 32.8767 132.638C33.0447 133.067 33.124 133.539 33.1147 134.052L33.1007 134.668H27.0947L26.7727 133.52H31.8547L31.6447 133.758V133.422C31.6167 133.114 31.514 132.839 31.3367 132.596C31.1594 132.353 30.9354 132.162 30.6647 132.022C30.394 131.882 30.1 131.812 29.7827 131.812C29.2787 131.812 28.854 131.91 28.5087 132.106C28.1634 132.293 27.902 132.573 27.7247 132.946C27.5474 133.31 27.4587 133.763 27.4587 134.304C27.4587 134.817 27.566 135.265 27.7807 135.648C27.9954 136.021 28.2987 136.311 28.6907 136.516C29.0827 136.721 29.5354 136.824 30.0487 136.824C30.4127 136.824 30.7487 136.763 31.0567 136.642C31.374 136.521 31.7147 136.301 32.0787 135.984L32.8067 137.006C32.5827 137.23 32.3074 137.426 31.9807 137.594C31.6634 137.762 31.3227 137.897 30.9587 138C30.604 138.093 30.254 138.14 29.9087 138.14ZM34.9198 138V130.65H36.3618V138H34.9198ZM35.6198 129.026C35.3118 129.026 35.0738 128.947 34.9058 128.788C34.7378 128.629 34.6538 128.405 34.6538 128.116C34.6538 127.845 34.7378 127.626 34.9058 127.458C35.0832 127.29 35.3212 127.206 35.6198 127.206C35.9278 127.206 36.1658 127.285 36.3338 127.444C36.5018 127.603 36.5858 127.827 36.5858 128.116C36.5858 128.387 36.4972 128.606 36.3198 128.774C36.1518 128.942 35.9185 129.026 35.6198 129.026ZM38.5783 138V130.65H40.0343V132.96L39.8943 132.4C39.997 132.045 40.1696 131.723 40.4123 131.434C40.6643 131.145 40.949 130.916 41.2663 130.748C41.593 130.58 41.929 130.496 42.2743 130.496C42.433 130.496 42.5823 130.51 42.7223 130.538C42.8716 130.566 42.9883 130.599 43.0723 130.636L42.6943 132.204C42.5823 132.157 42.4563 132.12 42.3163 132.092C42.1856 132.055 42.055 132.036 41.9243 132.036C41.6723 132.036 41.4296 132.087 41.1963 132.19C40.9723 132.283 40.7716 132.419 40.5943 132.596C40.4263 132.764 40.291 132.965 40.1883 133.198C40.0856 133.422 40.0343 133.669 40.0343 133.94V138H38.5783ZM47.2143 138.14C46.4957 138.14 45.8517 137.977 45.2823 137.65C44.7223 137.314 44.279 136.861 43.9523 136.292C43.6257 135.713 43.4623 135.055 43.4623 134.318C43.4623 133.581 43.6257 132.927 43.9523 132.358C44.279 131.779 44.7223 131.327 45.2823 131C45.8517 130.664 46.4957 130.496 47.2143 130.496C47.9237 130.496 48.5583 130.664 49.1183 131C49.6877 131.327 50.1357 131.779 50.4623 132.358C50.789 132.927 50.9523 133.581 50.9523 134.318C50.9523 135.055 50.789 135.713 50.4623 136.292C50.1357 136.861 49.6877 137.314 49.1183 137.65C48.5583 137.977 47.9237 138.14 47.2143 138.14ZM47.2143 136.824C47.653 136.824 48.045 136.717 48.3903 136.502C48.7357 136.278 49.0063 135.979 49.2023 135.606C49.3983 135.223 49.4917 134.794 49.4823 134.318C49.4917 133.833 49.3983 133.403 49.2023 133.03C49.0063 132.647 48.7357 132.349 48.3903 132.134C48.045 131.919 47.653 131.812 47.2143 131.812C46.7757 131.812 46.379 131.924 46.0243 132.148C45.679 132.363 45.4083 132.661 45.2123 133.044C45.0163 133.417 44.923 133.842 44.9323 134.318C44.923 134.794 45.0163 135.223 45.2123 135.606C45.4083 135.979 45.679 136.278 46.0243 136.502C46.379 136.717 46.7757 136.824 47.2143 136.824ZM51.0704 139.848L56.8384 128.2H58.2244L52.4704 139.848H51.0704ZM59.4895 138L59.0275 136.852L62.0235 133.478C62.1822 133.31 62.3455 133.119 62.5135 132.904C62.6908 132.68 62.8588 132.451 63.0175 132.218C63.1762 131.985 63.3022 131.756 63.3955 131.532C63.4982 131.299 63.5495 131.079 63.5495 130.874C63.5495 130.575 63.4888 130.323 63.3675 130.118C63.2555 129.903 63.0875 129.74 62.8635 129.628C62.6488 129.516 62.3875 129.46 62.0795 129.46C61.8088 129.46 61.5428 129.539 61.2815 129.698C61.0202 129.857 60.7822 130.081 60.5675 130.37C60.3528 130.659 60.1848 130.995 60.0635 131.378L58.9015 130.65C59.0602 130.109 59.2982 129.647 59.6155 129.264C59.9422 128.872 60.3295 128.573 60.7775 128.368C61.2348 128.163 61.7295 128.06 62.2615 128.06C62.8122 128.06 63.3022 128.177 63.7315 128.41C64.1608 128.634 64.4968 128.951 64.7395 129.362C64.9822 129.763 65.1035 130.23 65.1035 130.762C65.1035 130.977 65.0802 131.196 65.0335 131.42C64.9868 131.644 64.9122 131.877 64.8095 132.12C64.7068 132.353 64.5762 132.601 64.4175 132.862C64.2588 133.114 64.0675 133.38 63.8435 133.66C63.6288 133.94 63.3815 134.234 63.1015 134.542L60.8755 136.964L60.5955 136.544H65.4115V138H59.4895ZM67.1594 138L66.6974 136.852L69.6934 133.478C69.8521 133.31 70.0154 133.119 70.1834 132.904C70.3608 132.68 70.5288 132.451 70.6874 132.218C70.8461 131.985 70.9721 131.756 71.0654 131.532C71.1681 131.299 71.2194 131.079 71.2194 130.874C71.2194 130.575 71.1588 130.323 71.0374 130.118C70.9254 129.903 70.7574 129.74 70.5334 129.628C70.3188 129.516 70.0574 129.46 69.7494 129.46C69.4788 129.46 69.2128 129.539 68.9514 129.698C68.6901 129.857 68.4521 130.081 68.2374 130.37C68.0228 130.659 67.8548 130.995 67.7334 131.378L66.5714 130.65C66.7301 130.109 66.9681 129.647 67.2854 129.264C67.6121 128.872 67.9994 128.573 68.4474 128.368C68.9048 128.163 69.3994 128.06 69.9314 128.06C70.4821 128.06 70.9721 128.177 71.4014 128.41C71.8308 128.634 72.1668 128.951 72.4094 129.362C72.6521 129.763 72.7734 130.23 72.7734 130.762C72.7734 130.977 72.7501 131.196 72.7034 131.42C72.6568 131.644 72.5821 131.877 72.4794 132.12C72.3768 132.353 72.2461 132.601 72.0874 132.862C71.9288 133.114 71.7374 133.38 71.5134 133.66C71.2988 133.94 71.0514 134.234 70.7714 134.542L68.5454 136.964L68.2654 136.544H73.0814V138H67.1594Z" fill="#95989D"/>
<path d="M624.046 33.042C623.439 33.042 622.884 32.916 622.38 32.664C621.885 32.4027 621.489 32.0573 621.19 31.628C620.891 31.1987 620.742 30.7227 620.742 30.2C620.742 29.9107 620.779 29.64 620.854 29.388C620.938 29.1267 621.059 28.8887 621.218 28.674C621.386 28.4593 621.587 28.2633 621.82 28.086C622.053 27.9087 622.324 27.75 622.632 27.61L622.548 27.904C622.305 27.8107 622.086 27.6987 621.89 27.568C621.703 27.428 621.54 27.2693 621.4 27.092C621.26 26.9147 621.153 26.7233 621.078 26.518C621.013 26.3127 620.98 26.098 620.98 25.874C620.98 25.3793 621.115 24.9313 621.386 24.53C621.666 24.1287 622.035 23.8067 622.492 23.564C622.959 23.3213 623.477 23.2 624.046 23.2C624.615 23.2 625.129 23.3213 625.586 23.564C626.053 23.8067 626.421 24.1287 626.692 24.53C626.972 24.9313 627.112 25.3793 627.112 25.874C627.112 26.098 627.075 26.3127 627 26.518C626.935 26.7233 626.837 26.91 626.706 27.078C626.575 27.246 626.407 27.4 626.202 27.54C626.006 27.68 625.782 27.8013 625.53 27.904L625.488 27.666C625.768 27.778 626.02 27.9227 626.244 28.1C626.477 28.2773 626.678 28.478 626.846 28.702C627.014 28.926 627.14 29.164 627.224 29.416C627.317 29.668 627.364 29.9293 627.364 30.2C627.364 30.732 627.215 31.2127 626.916 31.642C626.617 32.0713 626.216 32.412 625.712 32.664C625.217 32.916 624.662 33.042 624.046 33.042ZM624.046 31.642C624.391 31.642 624.699 31.5767 624.97 31.446C625.25 31.3153 625.469 31.138 625.628 30.914C625.787 30.69 625.866 30.4333 625.866 30.144C625.866 29.836 625.787 29.5653 625.628 29.332C625.469 29.0893 625.25 28.898 624.97 28.758C624.699 28.618 624.391 28.548 624.046 28.548C623.701 28.548 623.393 28.618 623.122 28.758C622.851 28.898 622.637 29.0893 622.478 29.332C622.319 29.5653 622.24 29.836 622.24 30.144C622.24 30.424 622.319 30.676 622.478 30.9C622.637 31.124 622.851 31.306 623.122 31.446C623.393 31.5767 623.701 31.642 624.046 31.642ZM624.046 27.204C624.345 27.204 624.611 27.148 624.844 27.036C625.087 26.924 625.273 26.7747 625.404 26.588C625.544 26.392 625.614 26.168 625.614 25.916C625.614 25.664 625.544 25.44 625.404 25.244C625.273 25.048 625.087 24.894 624.844 24.782C624.611 24.6607 624.345 24.6 624.046 24.6C623.747 24.6 623.477 24.6607 623.234 24.782C623.001 24.894 622.814 25.048 622.674 25.244C622.543 25.44 622.478 25.664 622.478 25.916C622.478 26.168 622.543 26.392 622.674 26.588C622.814 26.7747 623.001 26.924 623.234 27.036C623.477 27.148 623.747 27.204 624.046 27.204ZM629.409 33L628.947 31.852L631.943 28.478C632.102 28.31 632.265 28.1187 632.433 27.904C632.611 27.68 632.779 27.4513 632.937 27.218C633.096 26.9847 633.222 26.756 633.315 26.532C633.418 26.2987 633.469 26.0793 633.469 25.874C633.469 25.5753 633.409 25.3233 633.287 25.118C633.175 24.9033 633.007 24.74 632.783 24.628C632.569 24.516 632.307 24.46 631.999 24.46C631.729 24.46 631.463 24.5393 631.201 24.698C630.94 24.8567 630.702 25.0807 630.487 25.37C630.273 25.6593 630.105 25.9953 629.983 26.378L628.821 25.65C628.98 25.1087 629.218 24.6467 629.535 24.264C629.862 23.872 630.249 23.5733 630.697 23.368C631.155 23.1627 631.649 23.06 632.181 23.06C632.732 23.06 633.222 23.1767 633.651 23.41C634.081 23.634 634.417 23.9513 634.659 24.362C634.902 24.7633 635.023 25.23 635.023 25.762C635.023 25.9767 635 26.196 634.953 26.42C634.907 26.644 634.832 26.8773 634.729 27.12C634.627 27.3533 634.496 27.6007 634.337 27.862C634.179 28.114 633.987 28.38 633.763 28.66C633.549 28.94 633.301 29.234 633.021 29.542L630.795 31.964L630.515 31.544H635.331V33H629.409Z" fill="#171F2B"/>
<path d="M533.046 14.042C532.439 14.042 531.884 13.916 531.38 13.664C530.885 13.4027 530.489 13.0573 530.19 12.628C529.891 12.1987 529.742 11.7227 529.742 11.2C529.742 10.9107 529.779 10.64 529.854 10.388C529.938 10.1267 530.059 9.88867 530.218 9.674C530.386 9.45933 530.587 9.26333 530.82 9.086C531.053 8.90867 531.324 8.75 531.632 8.61L531.548 8.904C531.305 8.81067 531.086 8.69867 530.89 8.568C530.703 8.428 530.54 8.26933 530.4 8.092C530.26 7.91467 530.153 7.72333 530.078 7.518C530.013 7.31267 529.98 7.098 529.98 6.874C529.98 6.37933 530.115 5.93133 530.386 5.53C530.666 5.12867 531.035 4.80667 531.492 4.564C531.959 4.32133 532.477 4.2 533.046 4.2C533.615 4.2 534.129 4.32133 534.586 4.564C535.053 4.80667 535.421 5.12867 535.692 5.53C535.972 5.93133 536.112 6.37933 536.112 6.874C536.112 7.098 536.075 7.31267 536 7.518C535.935 7.72333 535.837 7.91 535.706 8.078C535.575 8.246 535.407 8.4 535.202 8.54C535.006 8.68 534.782 8.80133 534.53 8.904L534.488 8.666C534.768 8.778 535.02 8.92267 535.244 9.1C535.477 9.27733 535.678 9.478 535.846 9.702C536.014 9.926 536.14 10.164 536.224 10.416C536.317 10.668 536.364 10.9293 536.364 11.2C536.364 11.732 536.215 12.2127 535.916 12.642C535.617 13.0713 535.216 13.412 534.712 13.664C534.217 13.916 533.662 14.042 533.046 14.042ZM533.046 12.642C533.391 12.642 533.699 12.5767 533.97 12.446C534.25 12.3153 534.469 12.138 534.628 11.914C534.787 11.69 534.866 11.4333 534.866 11.144C534.866 10.836 534.787 10.5653 534.628 10.332C534.469 10.0893 534.25 9.898 533.97 9.758C533.699 9.618 533.391 9.548 533.046 9.548C532.701 9.548 532.393 9.618 532.122 9.758C531.851 9.898 531.637 10.0893 531.478 10.332C531.319 10.5653 531.24 10.836 531.24 11.144C531.24 11.424 531.319 11.676 531.478 11.9C531.637 12.124 531.851 12.306 532.122 12.446C532.393 12.5767 532.701 12.642 533.046 12.642ZM533.046 8.204C533.345 8.204 533.611 8.148 533.844 8.036C534.087 7.924 534.273 7.77467 534.404 7.588C534.544 7.392 534.614 7.168 534.614 6.916C534.614 6.664 534.544 6.44 534.404 6.244C534.273 6.048 534.087 5.894 533.844 5.782C533.611 5.66067 533.345 5.6 533.046 5.6C532.747 5.6 532.477 5.66067 532.234 5.782C532.001 5.894 531.814 6.048 531.674 6.244C531.543 6.44 531.478 6.664 531.478 6.916C531.478 7.168 531.543 7.392 531.674 7.588C531.814 7.77467 532.001 7.924 532.234 8.036C532.477 8.148 532.747 8.204 533.046 8.204ZM540.299 14L540.243 13.86L543.155 7.672L543.197 8.834C543.029 9.114 542.843 9.36133 542.637 9.576C542.441 9.79067 542.222 9.97733 541.979 10.136C541.746 10.2853 541.503 10.402 541.251 10.486C540.999 10.5607 540.743 10.598 540.481 10.598C539.949 10.598 539.459 10.458 539.011 10.178C538.563 9.898 538.204 9.52467 537.933 9.058C537.663 8.59133 537.527 8.08267 537.527 7.532C537.527 6.86933 537.677 6.27667 537.975 5.754C538.274 5.222 538.68 4.802 539.193 4.494C539.716 4.186 540.299 4.032 540.943 4.032C541.41 4.032 541.849 4.116 542.259 4.284C542.67 4.452 543.029 4.69 543.337 4.998C543.645 5.29667 543.888 5.64667 544.065 6.048C544.243 6.44 544.331 6.86 544.331 7.308C544.331 7.54133 544.308 7.79333 544.261 8.064C544.215 8.32533 544.135 8.624 544.023 8.96C543.921 9.28667 543.781 9.66467 543.603 10.094C543.426 10.514 543.207 11.004 542.945 11.564L541.783 14H540.299ZM540.803 9.198C541.167 9.198 541.494 9.11867 541.783 8.96C542.073 8.792 542.297 8.57267 542.455 8.302C542.623 8.022 542.707 7.70933 542.707 7.364C542.707 7 542.628 6.67333 542.469 6.384C542.311 6.08533 542.087 5.852 541.797 5.684C541.517 5.516 541.195 5.432 540.831 5.432C540.495 5.432 540.197 5.516 539.935 5.684C539.674 5.84267 539.464 6.06667 539.305 6.356C539.156 6.636 539.081 6.96733 539.081 7.35C539.081 7.67667 539.156 7.98 539.305 8.26C539.464 8.54 539.674 8.76867 539.935 8.946C540.197 9.114 540.486 9.198 540.803 9.198Z" fill="#171F2B"/>
<path d="M446.568 44L450.628 35.152L450.796 35.6H445.84V34.2H451.902L452.098 35.166L448.192 44H446.568ZM457.16 44V36.104L457.51 36.188L454.29 40.122L454.234 39.954H460.324V41.34H453.296L452.652 40.08L457.454 34.2H458.616V44H457.16Z" fill="#171F2B"/>
<path d="M380.568 30L384.628 21.152L384.796 21.6H379.84V20.2H385.902L386.098 21.166L382.192 30H380.568ZM390.276 30C389.791 30 389.338 29.916 388.918 29.748C388.508 29.5707 388.148 29.328 387.84 29.02C387.542 28.712 387.304 28.348 387.126 27.928C386.958 27.508 386.874 27.046 386.874 26.542C386.874 26.29 386.907 26.01 386.972 25.702C387.047 25.3847 387.154 25.0393 387.294 24.666C387.444 24.2927 387.621 23.9007 387.826 23.49C388.032 23.07 388.27 22.636 388.54 22.188L389.814 20.032H391.284L391.34 20.172L389.8 22.762C389.52 23.238 389.268 23.6907 389.044 24.12C388.83 24.5493 388.648 24.9553 388.498 25.338C388.349 25.7113 388.237 26.052 388.162 26.36L387.826 24.918C388.004 24.6287 388.195 24.3767 388.4 24.162C388.606 23.938 388.825 23.7513 389.058 23.602C389.301 23.4527 389.553 23.3407 389.814 23.266C390.076 23.1913 390.346 23.154 390.626 23.154C391.168 23.154 391.662 23.3033 392.11 23.602C392.568 23.8913 392.932 24.2787 393.202 24.764C393.482 25.2493 393.622 25.7813 393.622 26.36C393.622 27.06 393.478 27.6853 393.188 28.236C392.908 28.7773 392.516 29.2067 392.012 29.524C391.508 29.8413 390.93 30 390.276 30ZM390.276 28.6C390.64 28.6 390.962 28.516 391.242 28.348C391.532 28.1707 391.756 27.928 391.914 27.62C392.082 27.3027 392.166 26.9433 392.166 26.542C392.166 26.1967 392.082 25.8747 391.914 25.576C391.746 25.268 391.522 25.0207 391.242 24.834C390.962 24.6473 390.65 24.554 390.304 24.554C389.922 24.554 389.581 24.6427 389.282 24.82C388.984 24.9973 388.75 25.2353 388.582 25.534C388.414 25.8327 388.33 26.164 388.33 26.528C388.33 26.92 388.414 27.2747 388.582 27.592C388.75 27.9 388.979 28.1473 389.268 28.334C389.558 28.5113 389.894 28.6 390.276 28.6Z" fill="#171F2B"/>
<path d="M303.568 34L307.628 25.152L307.796 25.6H302.84V24.2H308.902L309.098 25.166L305.192 34H303.568ZM313.186 34.098C312.542 34.098 311.959 33.9533 311.436 33.664C310.913 33.3653 310.479 32.9407 310.134 32.39L310.974 31.452C311.413 31.9373 311.795 32.2687 312.122 32.446C312.449 32.6233 312.803 32.712 313.186 32.712C313.569 32.712 313.914 32.628 314.222 32.46C314.53 32.292 314.773 32.0633 314.95 31.774C315.137 31.4847 315.23 31.1627 315.23 30.808C315.23 30.4347 315.141 30.1033 314.964 29.814C314.796 29.5153 314.567 29.282 314.278 29.114C313.989 28.9367 313.662 28.848 313.298 28.848C313.121 28.848 312.953 28.862 312.794 28.89C312.635 28.9087 312.444 28.96 312.22 29.044C311.996 29.128 311.702 29.2587 311.338 29.436L310.54 28.358L311.114 24.2H316.406V25.6H312.066L312.36 25.334L311.898 28.442L311.548 28.036C311.641 27.9427 311.8 27.854 312.024 27.77C312.248 27.6767 312.495 27.602 312.766 27.546C313.046 27.4807 313.312 27.448 313.564 27.448C314.161 27.448 314.693 27.588 315.16 27.868C315.636 28.1387 316.009 28.5167 316.28 29.002C316.56 29.4873 316.7 30.0427 316.7 30.668C316.7 31.312 316.546 31.8953 316.238 32.418C315.93 32.9313 315.51 33.342 314.978 33.65C314.446 33.9487 313.849 34.098 313.186 34.098Z" fill="#171F2B"/>
<path d="M226.046 15.042C225.439 15.042 224.884 14.916 224.38 14.664C223.885 14.4027 223.489 14.0573 223.19 13.628C222.891 13.1987 222.742 12.7227 222.742 12.2C222.742 11.9107 222.779 11.64 222.854 11.388C222.938 11.1267 223.059 10.8887 223.218 10.674C223.386 10.4593 223.587 10.2633 223.82 10.086C224.053 9.90867 224.324 9.75 224.632 9.61L224.548 9.904C224.305 9.81067 224.086 9.69867 223.89 9.568C223.703 9.428 223.54 9.26933 223.4 9.092C223.26 8.91467 223.153 8.72333 223.078 8.518C223.013 8.31267 222.98 8.098 222.98 7.874C222.98 7.37933 223.115 6.93133 223.386 6.53C223.666 6.12867 224.035 5.80667 224.492 5.564C224.959 5.32133 225.477 5.2 226.046 5.2C226.615 5.2 227.129 5.32133 227.586 5.564C228.053 5.80667 228.421 6.12867 228.692 6.53C228.972 6.93133 229.112 7.37933 229.112 7.874C229.112 8.098 229.075 8.31267 229 8.518C228.935 8.72333 228.837 8.91 228.706 9.078C228.575 9.246 228.407 9.4 228.202 9.54C228.006 9.68 227.782 9.80133 227.53 9.904L227.488 9.666C227.768 9.778 228.02 9.92267 228.244 10.1C228.477 10.2773 228.678 10.478 228.846 10.702C229.014 10.926 229.14 11.164 229.224 11.416C229.317 11.668 229.364 11.9293 229.364 12.2C229.364 12.732 229.215 13.2127 228.916 13.642C228.617 14.0713 228.216 14.412 227.712 14.664C227.217 14.916 226.662 15.042 226.046 15.042ZM226.046 13.642C226.391 13.642 226.699 13.5767 226.97 13.446C227.25 13.3153 227.469 13.138 227.628 12.914C227.787 12.69 227.866 12.4333 227.866 12.144C227.866 11.836 227.787 11.5653 227.628 11.332C227.469 11.0893 227.25 10.898 226.97 10.758C226.699 10.618 226.391 10.548 226.046 10.548C225.701 10.548 225.393 10.618 225.122 10.758C224.851 10.898 224.637 11.0893 224.478 11.332C224.319 11.5653 224.24 11.836 224.24 12.144C224.24 12.424 224.319 12.676 224.478 12.9C224.637 13.124 224.851 13.306 225.122 13.446C225.393 13.5767 225.701 13.642 226.046 13.642ZM226.046 9.204C226.345 9.204 226.611 9.148 226.844 9.036C227.087 8.924 227.273 8.77467 227.404 8.588C227.544 8.392 227.614 8.168 227.614 7.916C227.614 7.664 227.544 7.44 227.404 7.244C227.273 7.048 227.087 6.894 226.844 6.782C226.611 6.66067 226.345 6.6 226.046 6.6C225.747 6.6 225.477 6.66067 225.234 6.782C225.001 6.894 224.814 7.048 224.674 7.244C224.543 7.44 224.478 7.664 224.478 7.916C224.478 8.168 224.543 8.392 224.674 8.588C224.814 8.77467 225.001 8.924 225.234 9.036C225.477 9.148 225.747 9.204 226.046 9.204ZM234.153 15.042C233.547 15.042 232.991 14.916 232.487 14.664C231.993 14.4027 231.596 14.0573 231.297 13.628C230.999 13.1987 230.849 12.7227 230.849 12.2C230.849 11.9107 230.887 11.64 230.961 11.388C231.045 11.1267 231.167 10.8887 231.325 10.674C231.493 10.4593 231.694 10.2633 231.927 10.086C232.161 9.90867 232.431 9.75 232.739 9.61L232.655 9.904C232.413 9.81067 232.193 9.69867 231.997 9.568C231.811 9.428 231.647 9.26933 231.507 9.092C231.367 8.91467 231.26 8.72333 231.185 8.518C231.12 8.31267 231.087 8.098 231.087 7.874C231.087 7.37933 231.223 6.93133 231.493 6.53C231.773 6.12867 232.142 5.80667 232.599 5.564C233.066 5.32133 233.584 5.2 234.153 5.2C234.723 5.2 235.236 5.32133 235.693 5.564C236.16 5.80667 236.529 6.12867 236.799 6.53C237.079 6.93133 237.219 7.37933 237.219 7.874C237.219 8.098 237.182 8.31267 237.107 8.518C237.042 8.72333 236.944 8.91 236.813 9.078C236.683 9.246 236.515 9.4 236.309 9.54C236.113 9.68 235.889 9.80133 235.637 9.904L235.595 9.666C235.875 9.778 236.127 9.92267 236.351 10.1C236.585 10.2773 236.785 10.478 236.953 10.702C237.121 10.926 237.247 11.164 237.331 11.416C237.425 11.668 237.471 11.9293 237.471 12.2C237.471 12.732 237.322 13.2127 237.023 13.642C236.725 14.0713 236.323 14.412 235.819 14.664C235.325 14.916 234.769 15.042 234.153 15.042ZM234.153 13.642C234.499 13.642 234.807 13.5767 235.077 13.446C235.357 13.3153 235.577 13.138 235.735 12.914C235.894 12.69 235.973 12.4333 235.973 12.144C235.973 11.836 235.894 11.5653 235.735 11.332C235.577 11.0893 235.357 10.898 235.077 10.758C234.807 10.618 234.499 10.548 234.153 10.548C233.808 10.548 233.5 10.618 233.229 10.758C232.959 10.898 232.744 11.0893 232.585 11.332C232.427 11.5653 232.347 11.836 232.347 12.144C232.347 12.424 232.427 12.676 232.585 12.9C232.744 13.124 232.959 13.306 233.229 13.446C233.5 13.5767 233.808 13.642 234.153 13.642ZM234.153 9.204C234.452 9.204 234.718 9.148 234.951 9.036C235.194 8.924 235.381 8.77467 235.511 8.588C235.651 8.392 235.721 8.168 235.721 7.916C235.721 7.664 235.651 7.44 235.511 7.244C235.381 7.048 235.194 6.894 234.951 6.782C234.718 6.66067 234.452 6.6 234.153 6.6C233.855 6.6 233.584 6.66067 233.341 6.782C233.108 6.894 232.921 7.048 232.781 7.244C232.651 7.44 232.585 7.664 232.585 7.916C232.585 8.168 232.651 8.392 232.781 8.588C232.921 8.77467 233.108 8.924 233.341 9.036C233.584 9.148 233.855 9.204 234.153 9.204Z" fill="#171F2B"/>
<path d="M121.568 36L125.628 27.152L125.796 27.6H120.84V26.2H126.902L127.098 27.166L123.192 36H121.568ZM131.186 36.098C130.542 36.098 129.959 35.9533 129.436 35.664C128.913 35.3653 128.479 34.9407 128.134 34.39L128.974 33.452C129.413 33.9373 129.795 34.2687 130.122 34.446C130.449 34.6233 130.803 34.712 131.186 34.712C131.569 34.712 131.914 34.628 132.222 34.46C132.53 34.292 132.773 34.0633 132.95 33.774C133.137 33.4847 133.23 33.1627 133.23 32.808C133.23 32.4347 133.141 32.1033 132.964 31.814C132.796 31.5153 132.567 31.282 132.278 31.114C131.989 30.9367 131.662 30.848 131.298 30.848C131.121 30.848 130.953 30.862 130.794 30.89C130.635 30.9087 130.444 30.96 130.22 31.044C129.996 31.128 129.702 31.2587 129.338 31.436L128.54 30.358L129.114 26.2H134.406V27.6H130.066L130.36 27.334L129.898 30.442L129.548 30.036C129.641 29.9427 129.8 29.854 130.024 29.77C130.248 29.6767 130.495 29.602 130.766 29.546C131.046 29.4807 131.312 29.448 131.564 29.448C132.161 29.448 132.693 29.588 133.16 29.868C133.636 30.1387 134.009 30.5167 134.28 31.002C134.56 31.4873 134.7 32.0427 134.7 32.668C134.7 33.312 134.546 33.8953 134.238 34.418C133.93 34.9313 133.51 35.342 132.978 35.65C132.446 35.9487 131.849 36.098 131.186 36.098Z" fill="#171F2B"/>
<path d="M29.568 25L33.628 16.152L33.796 16.6H28.84V15.2H34.902L35.098 16.166L31.192 25H29.568ZM37.1559 25L41.2159 16.152L41.3839 16.6H36.4279V15.2H42.4899L42.6859 16.166L38.7799 25H37.1559Z" fill="#171F2B"/>
<path d="M93.372 138V128.2H94.884V138H93.372ZM94.044 133.828V132.372H99.098V133.828H94.044ZM94.044 129.656V128.2H99.728V129.656H94.044ZM104.655 138.14C103.899 138.14 103.227 137.981 102.639 137.664C102.06 137.337 101.603 136.894 101.267 136.334C100.94 135.774 100.777 135.13 100.777 134.402C100.777 133.823 100.87 133.296 101.057 132.82C101.243 132.344 101.5 131.933 101.827 131.588C102.163 131.233 102.559 130.963 103.017 130.776C103.483 130.58 103.987 130.482 104.529 130.482C105.005 130.482 105.448 130.575 105.859 130.762C106.269 130.939 106.624 131.187 106.923 131.504C107.231 131.821 107.464 132.199 107.623 132.638C107.791 133.067 107.87 133.539 107.861 134.052L107.847 134.668H101.841L101.519 133.52H106.601L106.391 133.758V133.422C106.363 133.114 106.26 132.839 106.083 132.596C105.905 132.353 105.681 132.162 105.411 132.022C105.14 131.882 104.846 131.812 104.529 131.812C104.025 131.812 103.6 131.91 103.255 132.106C102.909 132.293 102.648 132.573 102.471 132.946C102.293 133.31 102.205 133.763 102.205 134.304C102.205 134.817 102.312 135.265 102.527 135.648C102.741 136.021 103.045 136.311 103.437 136.516C103.829 136.721 104.281 136.824 104.795 136.824C105.159 136.824 105.495 136.763 105.803 136.642C106.12 136.521 106.461 136.301 106.825 135.984L107.553 137.006C107.329 137.23 107.053 137.426 106.727 137.594C106.409 137.762 106.069 137.897 105.705 138C105.35 138.093 105 138.14 104.655 138.14ZM111.699 138L108.591 130.65H110.145L112.385 136.152L112.119 136.278L114.513 130.65H115.997L112.735 138H111.699ZM120.542 138.14C119.786 138.14 119.114 137.981 118.526 137.664C117.947 137.337 117.49 136.894 117.154 136.334C116.827 135.774 116.664 135.13 116.664 134.402C116.664 133.823 116.757 133.296 116.944 132.82C117.13 132.344 117.387 131.933 117.714 131.588C118.05 131.233 118.446 130.963 118.904 130.776C119.37 130.58 119.874 130.482 120.416 130.482C120.892 130.482 121.335 130.575 121.746 130.762C122.156 130.939 122.511 131.187 122.81 131.504C123.118 131.821 123.351 132.199 123.51 132.638C123.678 133.067 123.757 133.539 123.748 134.052L123.734 134.668H117.728L117.406 133.52H122.488L122.278 133.758V133.422C122.25 133.114 122.147 132.839 121.97 132.596C121.792 132.353 121.568 132.162 121.298 132.022C121.027 131.882 120.733 131.812 120.416 131.812C119.912 131.812 119.487 131.91 119.142 132.106C118.796 132.293 118.535 132.573 118.358 132.946C118.18 133.31 118.092 133.763 118.092 134.304C118.092 134.817 118.199 135.265 118.414 135.648C118.628 136.021 118.932 136.311 119.324 136.516C119.716 136.721 120.168 136.824 120.682 136.824C121.046 136.824 121.382 136.763 121.69 136.642C122.007 136.521 122.348 136.301 122.712 135.984L123.44 137.006C123.216 137.23 122.94 137.426 122.614 137.594C122.296 137.762 121.956 137.897 121.592 138C121.237 138.093 120.887 138.14 120.542 138.14ZM125.315 138V130.65H126.771V132.96L126.631 132.4C126.733 132.045 126.906 131.723 127.149 131.434C127.401 131.145 127.685 130.916 128.003 130.748C128.329 130.58 128.665 130.496 129.011 130.496C129.169 130.496 129.319 130.51 129.459 130.538C129.608 130.566 129.725 130.599 129.809 130.636L129.431 132.204C129.319 132.157 129.193 132.12 129.053 132.092C128.922 132.055 128.791 132.036 128.661 132.036C128.409 132.036 128.166 132.087 127.933 132.19C127.709 132.283 127.508 132.419 127.331 132.596C127.163 132.764 127.027 132.965 126.925 133.198C126.822 133.422 126.771 133.669 126.771 133.94V138H125.315ZM134.077 138.14C133.321 138.14 132.649 137.981 132.061 137.664C131.482 137.337 131.025 136.894 130.689 136.334C130.362 135.774 130.199 135.13 130.199 134.402C130.199 133.823 130.292 133.296 130.479 132.82C130.665 132.344 130.922 131.933 131.249 131.588C131.585 131.233 131.981 130.963 132.439 130.776C132.905 130.58 133.409 130.482 133.951 130.482C134.427 130.482 134.87 130.575 135.281 130.762C135.691 130.939 136.046 131.187 136.345 131.504C136.653 131.821 136.886 132.199 137.045 132.638C137.213 133.067 137.292 133.539 137.283 134.052L137.269 134.668H131.263L130.941 133.52H136.023L135.813 133.758V133.422C135.785 133.114 135.682 132.839 135.505 132.596C135.327 132.353 135.103 132.162 134.833 132.022C134.562 131.882 134.268 131.812 133.951 131.812C133.447 131.812 133.022 131.91 132.677 132.106C132.331 132.293 132.07 132.573 131.893 132.946C131.715 133.31 131.627 133.763 131.627 134.304C131.627 134.817 131.734 135.265 131.949 135.648C132.163 136.021 132.467 136.311 132.859 136.516C133.251 136.721 133.703 136.824 134.217 136.824C134.581 136.824 134.917 136.763 135.225 136.642C135.542 136.521 135.883 136.301 136.247 135.984L136.975 137.006C136.751 137.23 136.475 137.426 136.149 137.594C135.831 137.762 135.491 137.897 135.127 138C134.772 138.093 134.422 138.14 134.077 138.14ZM139.088 138V130.65H140.53V138H139.088ZM139.788 129.026C139.48 129.026 139.242 128.947 139.074 128.788C138.906 128.629 138.822 128.405 138.822 128.116C138.822 127.845 138.906 127.626 139.074 127.458C139.251 127.29 139.489 127.206 139.788 127.206C140.096 127.206 140.334 127.285 140.502 127.444C140.67 127.603 140.754 127.827 140.754 128.116C140.754 128.387 140.665 128.606 140.488 128.774C140.32 128.942 140.086 129.026 139.788 129.026ZM142.746 138V130.65H144.202V132.96L144.062 132.4C144.165 132.045 144.338 131.723 144.58 131.434C144.832 131.145 145.117 130.916 145.434 130.748C145.761 130.58 146.097 130.496 146.442 130.496C146.601 130.496 146.75 130.51 146.89 130.538C147.04 130.566 147.156 130.599 147.24 130.636L146.862 132.204C146.75 132.157 146.624 132.12 146.484 132.092C146.354 132.055 146.223 132.036 146.092 132.036C145.84 132.036 145.598 132.087 145.364 132.19C145.14 132.283 144.94 132.419 144.762 132.596C144.594 132.764 144.459 132.965 144.356 133.198C144.254 133.422 144.202 133.669 144.202 133.94V138H142.746ZM151.382 138.14C150.664 138.14 150.02 137.977 149.45 137.65C148.89 137.314 148.447 136.861 148.12 136.292C147.794 135.713 147.63 135.055 147.63 134.318C147.63 133.581 147.794 132.927 148.12 132.358C148.447 131.779 148.89 131.327 149.45 131C150.02 130.664 150.664 130.496 151.382 130.496C152.092 130.496 152.726 130.664 153.286 131C153.856 131.327 154.304 131.779 154.63 132.358C154.957 132.927 155.12 133.581 155.12 134.318C155.12 135.055 154.957 135.713 154.63 136.292C154.304 136.861 153.856 137.314 153.286 137.65C152.726 137.977 152.092 138.14 151.382 138.14ZM151.382 136.824C151.821 136.824 152.213 136.717 152.558 136.502C152.904 136.278 153.174 135.979 153.37 135.606C153.566 135.223 153.66 134.794 153.65 134.318C153.66 133.833 153.566 133.403 153.37 133.03C153.174 132.647 152.904 132.349 152.558 132.134C152.213 131.919 151.821 131.812 151.382 131.812C150.944 131.812 150.547 131.924 150.192 132.148C149.847 132.363 149.576 132.661 149.38 133.044C149.184 133.417 149.091 133.842 149.1 134.318C149.091 134.794 149.184 135.223 149.38 135.606C149.576 135.979 149.847 136.278 150.192 136.502C150.547 136.717 150.944 136.824 151.382 136.824ZM155.238 139.848L161.006 128.2H162.392L156.638 139.848H155.238ZM163.657 138L163.195 136.852L166.191 133.478C166.35 133.31 166.513 133.119 166.681 132.904C166.859 132.68 167.027 132.451 167.185 132.218C167.344 131.985 167.47 131.756 167.563 131.532C167.666 131.299 167.717 131.079 167.717 130.874C167.717 130.575 167.657 130.323 167.535 130.118C167.423 129.903 167.255 129.74 167.031 129.628C166.817 129.516 166.555 129.46 166.247 129.46C165.977 129.46 165.711 129.539 165.449 129.698C165.188 129.857 164.95 130.081 164.735 130.37C164.521 130.659 164.353 130.995 164.231 131.378L163.069 130.65C163.228 130.109 163.466 129.647 163.783 129.264C164.11 128.872 164.497 128.573 164.945 128.368C165.403 128.163 165.897 128.06 166.429 128.06C166.98 128.06 167.47 128.177 167.899 128.41C168.329 128.634 168.665 128.951 168.907 129.362C169.15 129.763 169.271 130.23 169.271 130.762C169.271 130.977 169.248 131.196 169.201 131.42C169.155 131.644 169.08 131.877 168.977 132.12C168.875 132.353 168.744 132.601 168.585 132.862C168.427 133.114 168.235 133.38 168.011 133.66C167.797 133.94 167.549 134.234 167.269 134.542L165.043 136.964L164.763 136.544H169.579V138H163.657ZM171.327 138L170.865 136.852L173.861 133.478C174.02 133.31 174.183 133.119 174.351 132.904C174.529 132.68 174.697 132.451 174.855 132.218C175.014 131.985 175.14 131.756 175.233 131.532C175.336 131.299 175.387 131.079 175.387 130.874C175.387 130.575 175.327 130.323 175.205 130.118C175.093 129.903 174.925 129.74 174.701 129.628C174.487 129.516 174.225 129.46 173.917 129.46C173.647 129.46 173.381 129.539 173.119 129.698C172.858 129.857 172.62 130.081 172.405 130.37C172.191 130.659 172.023 130.995 171.901 131.378L170.739 130.65C170.898 130.109 171.136 129.647 171.453 129.264C171.78 128.872 172.167 128.573 172.615 128.368C173.073 128.163 173.567 128.06 174.099 128.06C174.65 128.06 175.14 128.177 175.569 128.41C175.999 128.634 176.335 128.951 176.577 129.362C176.82 129.763 176.941 130.23 176.941 130.762C176.941 130.977 176.918 131.196 176.871 131.42C176.825 131.644 176.75 131.877 176.647 132.12C176.545 132.353 176.414 132.601 176.255 132.862C176.097 133.114 175.905 133.38 175.681 133.66C175.467 133.94 175.219 134.234 174.939 134.542L172.713 136.964L172.433 136.544H177.249V138H171.327Z" fill="#95989D"/>
<path d="M197.372 138V128.2H198.856L202.426 134.01L201.712 133.996L205.324 128.2H206.724V138H205.212V133.982C205.212 133.142 205.231 132.386 205.268 131.714C205.315 131.042 205.389 130.375 205.492 129.712L205.688 130.23L202.482 135.186H201.558L198.45 130.286L198.604 129.712C198.707 130.337 198.777 130.981 198.814 131.644C198.861 132.297 198.884 133.077 198.884 133.982V138H197.372ZM211.936 138.14C211.329 138.14 210.774 137.972 210.27 137.636C209.775 137.3 209.378 136.843 209.08 136.264C208.781 135.685 208.632 135.032 208.632 134.304C208.632 133.567 208.781 132.913 209.08 132.344C209.388 131.765 209.798 131.313 210.312 130.986C210.834 130.659 211.418 130.496 212.062 130.496C212.444 130.496 212.794 130.552 213.112 130.664C213.429 130.776 213.704 130.935 213.938 131.14C214.18 131.336 214.376 131.565 214.526 131.826C214.684 132.087 214.782 132.367 214.82 132.666L214.498 132.554V130.65H215.954V138H214.498V136.25L214.834 136.152C214.778 136.404 214.661 136.651 214.484 136.894C214.316 137.127 214.096 137.337 213.826 137.524C213.564 137.711 213.27 137.86 212.944 137.972C212.626 138.084 212.29 138.14 211.936 138.14ZM212.314 136.81C212.752 136.81 213.14 136.703 213.476 136.488C213.812 136.273 214.073 135.979 214.26 135.606C214.456 135.223 214.554 134.789 214.554 134.304C214.554 133.828 214.456 133.403 214.26 133.03C214.073 132.657 213.812 132.363 213.476 132.148C213.14 131.933 212.752 131.826 212.314 131.826C211.884 131.826 211.502 131.933 211.166 132.148C210.839 132.363 210.578 132.657 210.382 133.03C210.195 133.403 210.102 133.828 210.102 134.304C210.102 134.789 210.195 135.223 210.382 135.606C210.578 135.979 210.839 136.273 211.166 136.488C211.502 136.703 211.884 136.81 212.314 136.81ZM217.967 138V130.65H219.423V132.96L219.283 132.4C219.386 132.045 219.558 131.723 219.801 131.434C220.053 131.145 220.338 130.916 220.655 130.748C220.982 130.58 221.318 130.496 221.663 130.496C221.822 130.496 221.971 130.51 222.111 130.538C222.26 130.566 222.377 130.599 222.461 130.636L222.083 132.204C221.971 132.157 221.845 132.12 221.705 132.092C221.574 132.055 221.444 132.036 221.313 132.036C221.061 132.036 220.818 132.087 220.585 132.19C220.361 132.283 220.16 132.419 219.983 132.596C219.815 132.764 219.68 132.965 219.577 133.198C219.474 133.422 219.423 133.669 219.423 133.94V138H217.967ZM226.421 138.14C225.74 138.14 225.128 137.972 224.587 137.636C224.055 137.3 223.63 136.843 223.313 136.264C223.005 135.685 222.851 135.037 222.851 134.318C222.851 133.599 223.005 132.951 223.313 132.372C223.63 131.793 224.055 131.336 224.587 131C225.128 130.664 225.74 130.496 226.421 130.496C227.074 130.496 227.667 130.631 228.199 130.902C228.74 131.163 229.151 131.523 229.431 131.98L228.633 132.96C228.484 132.745 228.292 132.549 228.059 132.372C227.826 132.195 227.578 132.055 227.317 131.952C227.056 131.849 226.804 131.798 226.561 131.798C226.113 131.798 225.712 131.91 225.357 132.134C225.012 132.349 224.736 132.647 224.531 133.03C224.326 133.413 224.223 133.842 224.223 134.318C224.223 134.794 224.33 135.223 224.545 135.606C224.76 135.979 225.044 136.278 225.399 136.502C225.754 136.726 226.146 136.838 226.575 136.838C226.827 136.838 227.07 136.796 227.303 136.712C227.546 136.628 227.779 136.502 228.003 136.334C228.227 136.166 228.437 135.961 228.633 135.718L229.431 136.698C229.132 137.118 228.703 137.463 228.143 137.734C227.592 138.005 227.018 138.14 226.421 138.14ZM225.147 141.416L225.049 140.674C225.273 140.674 225.506 140.637 225.749 140.562C225.992 140.487 226.197 140.389 226.365 140.268C226.533 140.156 226.617 140.044 226.617 139.932C226.617 139.801 226.538 139.699 226.379 139.624C226.22 139.549 226.043 139.493 225.847 139.456C225.651 139.419 225.488 139.4 225.357 139.4L225.175 139.26L226.183 137.664H227.009L226.407 138.644C226.874 138.737 227.224 138.896 227.457 139.12C227.69 139.344 227.807 139.619 227.807 139.946C227.807 140.189 227.723 140.403 227.555 140.59C227.396 140.777 227.186 140.931 226.925 141.052C226.664 141.183 226.374 141.276 226.057 141.332C225.749 141.397 225.446 141.425 225.147 141.416ZM234.095 138.14C233.377 138.14 232.733 137.977 232.163 137.65C231.603 137.314 231.16 136.861 230.833 136.292C230.507 135.713 230.343 135.055 230.343 134.318C230.343 133.581 230.507 132.927 230.833 132.358C231.16 131.779 231.603 131.327 232.163 131C232.733 130.664 233.377 130.496 234.095 130.496C234.805 130.496 235.439 130.664 235.999 131C236.569 131.327 237.017 131.779 237.343 132.358C237.67 132.927 237.833 133.581 237.833 134.318C237.833 135.055 237.67 135.713 237.343 136.292C237.017 136.861 236.569 137.314 235.999 137.65C235.439 137.977 234.805 138.14 234.095 138.14ZM234.095 136.824C234.534 136.824 234.926 136.717 235.271 136.502C235.617 136.278 235.887 135.979 236.083 135.606C236.279 135.223 236.373 134.794 236.363 134.318C236.373 133.833 236.279 133.403 236.083 133.03C235.887 132.647 235.617 132.349 235.271 132.134C234.926 131.919 234.534 131.812 234.095 131.812C233.657 131.812 233.26 131.924 232.905 132.148C232.56 132.363 232.289 132.661 232.093 133.044C231.897 133.417 231.804 133.842 231.813 134.318C231.804 134.794 231.897 135.223 232.093 135.606C232.289 135.979 232.56 136.278 232.905 136.502C233.26 136.717 233.657 136.824 234.095 136.824ZM237.951 139.848L243.719 128.2H245.105L239.351 139.848H237.951ZM246.37 138L245.908 136.852L248.904 133.478C249.063 133.31 249.226 133.119 249.394 132.904C249.572 132.68 249.74 132.451 249.898 132.218C250.057 131.985 250.183 131.756 250.276 131.532C250.379 131.299 250.43 131.079 250.43 130.874C250.43 130.575 250.37 130.323 250.248 130.118C250.136 129.903 249.968 129.74 249.744 129.628C249.53 129.516 249.268 129.46 248.96 129.46C248.69 129.46 248.424 129.539 248.162 129.698C247.901 129.857 247.663 130.081 247.448 130.37C247.234 130.659 247.066 130.995 246.944 131.378L245.782 130.65C245.941 130.109 246.179 129.647 246.496 129.264C246.823 128.872 247.21 128.573 247.658 128.368C248.116 128.163 248.61 128.06 249.142 128.06C249.693 128.06 250.183 128.177 250.612 128.41C251.042 128.634 251.378 128.951 251.62 129.362C251.863 129.763 251.984 130.23 251.984 130.762C251.984 130.977 251.961 131.196 251.914 131.42C251.868 131.644 251.793 131.877 251.69 132.12C251.588 132.353 251.457 132.601 251.298 132.862C251.14 133.114 250.948 133.38 250.724 133.66C250.51 133.94 250.262 134.234 249.982 134.542L247.756 136.964L247.476 136.544H252.292V138H246.37ZM254.04 138L253.578 136.852L256.574 133.478C256.733 133.31 256.896 133.119 257.064 132.904C257.242 132.68 257.41 132.451 257.568 132.218C257.727 131.985 257.853 131.756 257.946 131.532C258.049 131.299 258.1 131.079 258.1 130.874C258.1 130.575 258.04 130.323 257.918 130.118C257.806 129.903 257.638 129.74 257.414 129.628C257.2 129.516 256.938 129.46 256.63 129.46C256.36 129.46 256.094 129.539 255.832 129.698C255.571 129.857 255.333 130.081 255.118 130.37C254.904 130.659 254.736 130.995 254.614 131.378L253.452 130.65C253.611 130.109 253.849 129.647 254.166 129.264C254.493 128.872 254.88 128.573 255.328 128.368C255.786 128.163 256.28 128.06 256.812 128.06C257.363 128.06 257.853 128.177 258.282 128.41C258.712 128.634 259.048 128.951 259.29 129.362C259.533 129.763 259.654 130.23 259.654 130.762C259.654 130.977 259.631 131.196 259.584 131.42C259.538 131.644 259.463 131.877 259.36 132.12C259.258 132.353 259.127 132.601 258.968 132.862C258.81 133.114 258.618 133.38 258.394 133.66C258.18 133.94 257.932 134.234 257.652 134.542L255.426 136.964L255.146 136.544H259.962V138H254.04Z" fill="#95989D"/>
<path d="M280.35 138L284.144 128.2H285.684L289.45 138H287.84L285.6 132.092C285.572 132.027 285.516 131.868 285.432 131.616C285.357 131.364 285.269 131.084 285.166 130.776C285.063 130.468 284.97 130.188 284.886 129.936C284.802 129.675 284.746 129.507 284.718 129.432L285.04 129.418C284.984 129.577 284.914 129.777 284.83 130.02C284.755 130.263 284.671 130.519 284.578 130.79C284.494 131.061 284.41 131.317 284.326 131.56C284.242 131.793 284.172 131.989 284.116 132.148L281.89 138H280.35ZM282.03 135.564L282.59 134.108H287.042L287.686 135.564H282.03ZM294.675 138.14C294.357 138.14 294.04 138.089 293.723 137.986C293.415 137.883 293.13 137.748 292.869 137.58C292.617 137.403 292.402 137.211 292.225 137.006C292.057 136.791 291.945 136.577 291.889 136.362L292.253 136.166V137.958H290.811V127.64H292.253V132.33L292.029 132.204C292.075 131.989 292.178 131.784 292.337 131.588C292.495 131.383 292.696 131.201 292.939 131.042C293.191 130.874 293.461 130.743 293.751 130.65C294.04 130.547 294.334 130.496 294.633 130.496C295.295 130.496 295.883 130.659 296.397 130.986C296.91 131.313 297.316 131.765 297.615 132.344C297.913 132.913 298.063 133.567 298.063 134.304C298.063 135.041 297.913 135.699 297.615 136.278C297.325 136.857 296.924 137.314 296.411 137.65C295.897 137.977 295.319 138.14 294.675 138.14ZM294.437 136.824C294.866 136.824 295.249 136.717 295.585 136.502C295.921 136.278 296.187 135.979 296.383 135.606C296.579 135.223 296.677 134.789 296.677 134.304C296.677 133.828 296.579 133.403 296.383 133.03C296.196 132.647 295.935 132.349 295.599 132.134C295.263 131.919 294.875 131.812 294.437 131.812C293.998 131.812 293.611 131.919 293.275 132.134C292.939 132.349 292.673 132.647 292.477 133.03C292.281 133.403 292.183 133.828 292.183 134.304C292.183 134.789 292.281 135.223 292.477 135.606C292.673 135.979 292.939 136.278 293.275 136.502C293.611 136.717 293.998 136.824 294.437 136.824ZM299.629 138V130.65H301.085V132.96L300.945 132.4C301.048 132.045 301.22 131.723 301.463 131.434C301.715 131.145 302 130.916 302.317 130.748C302.644 130.58 302.98 130.496 303.325 130.496C303.484 130.496 303.633 130.51 303.773 130.538C303.922 130.566 304.039 130.599 304.123 130.636L303.745 132.204C303.633 132.157 303.507 132.12 303.367 132.092C303.236 132.055 303.106 132.036 302.975 132.036C302.723 132.036 302.48 132.087 302.247 132.19C302.023 132.283 301.822 132.419 301.645 132.596C301.477 132.764 301.342 132.965 301.239 133.198C301.136 133.422 301.085 133.669 301.085 133.94V138H299.629ZM305.514 138V130.65H306.956V138H305.514ZM306.214 129.026C305.906 129.026 305.668 128.947 305.5 128.788C305.332 128.629 305.248 128.405 305.248 128.116C305.248 127.845 305.332 127.626 305.5 127.458C305.677 127.29 305.915 127.206 306.214 127.206C306.522 127.206 306.76 127.285 306.928 127.444C307.096 127.603 307.18 127.827 307.18 128.116C307.18 128.387 307.091 128.606 306.914 128.774C306.746 128.942 306.512 129.026 306.214 129.026ZM309.2 138V127.64H310.642V138H309.2ZM311.93 139.848L317.698 128.2H319.084L313.33 139.848H311.93ZM320.349 138L319.887 136.852L322.883 133.478C323.042 133.31 323.205 133.119 323.373 132.904C323.55 132.68 323.718 132.451 323.877 132.218C324.036 131.985 324.162 131.756 324.255 131.532C324.358 131.299 324.409 131.079 324.409 130.874C324.409 130.575 324.348 130.323 324.227 130.118C324.115 129.903 323.947 129.74 323.723 129.628C323.508 129.516 323.247 129.46 322.939 129.46C322.668 129.46 322.402 129.539 322.141 129.698C321.88 129.857 321.642 130.081 321.427 130.37C321.212 130.659 321.044 130.995 320.923 131.378L319.761 130.65C319.92 130.109 320.158 129.647 320.475 129.264C320.802 128.872 321.189 128.573 321.637 128.368C322.094 128.163 322.589 128.06 323.121 128.06C323.672 128.06 324.162 128.177 324.591 128.41C325.02 128.634 325.356 128.951 325.599 129.362C325.842 129.763 325.963 130.23 325.963 130.762C325.963 130.977 325.94 131.196 325.893 131.42C325.846 131.644 325.772 131.877 325.669 132.12C325.566 132.353 325.436 132.601 325.277 132.862C325.118 133.114 324.927 133.38 324.703 133.66C324.488 133.94 324.241 134.234 323.961 134.542L321.735 136.964L321.455 136.544H326.271V138H320.349ZM328.019 138L327.557 136.852L330.553 133.478C330.711 133.31 330.875 133.119 331.043 132.904C331.22 132.68 331.388 132.451 331.547 132.218C331.705 131.985 331.831 131.756 331.925 131.532C332.027 131.299 332.079 131.079 332.079 130.874C332.079 130.575 332.018 130.323 331.897 130.118C331.785 129.903 331.617 129.74 331.393 129.628C331.178 129.516 330.917 129.46 330.609 129.46C330.338 129.46 330.072 129.539 329.811 129.698C329.549 129.857 329.311 130.081 329.097 130.37C328.882 130.659 328.714 130.995 328.593 131.378L327.431 130.65C327.589 130.109 327.827 129.647 328.145 129.264C328.471 128.872 328.859 128.573 329.307 128.368C329.764 128.163 330.259 128.06 330.791 128.06C331.341 128.06 331.831 128.177 332.261 128.41C332.69 128.634 333.026 128.951 333.269 129.362C333.511 129.763 333.633 130.23 333.633 130.762C333.633 130.977 333.609 131.196 333.563 131.42C333.516 131.644 333.441 131.877 333.339 132.12C333.236 132.353 333.105 132.601 332.947 132.862C332.788 133.114 332.597 133.38 332.373 133.66C332.158 133.94 331.911 134.234 331.631 134.542L329.405 136.964L329.125 136.544H333.941V138H328.019Z" fill="#95989D"/>
<path d="M354.372 138V128.2H355.856L359.426 134.01L358.712 133.996L362.324 128.2H363.724V138H362.212V133.982C362.212 133.142 362.231 132.386 362.268 131.714C362.315 131.042 362.389 130.375 362.492 129.712L362.688 130.23L359.482 135.186H358.558L355.45 130.286L355.604 129.712C355.707 130.337 355.777 130.981 355.814 131.644C355.861 132.297 355.884 133.077 355.884 133.982V138H354.372ZM368.936 138.14C368.329 138.14 367.774 137.972 367.27 137.636C366.775 137.3 366.378 136.843 366.08 136.264C365.781 135.685 365.632 135.032 365.632 134.304C365.632 133.567 365.781 132.913 366.08 132.344C366.388 131.765 366.798 131.313 367.312 130.986C367.834 130.659 368.418 130.496 369.062 130.496C369.444 130.496 369.794 130.552 370.112 130.664C370.429 130.776 370.704 130.935 370.938 131.14C371.18 131.336 371.376 131.565 371.526 131.826C371.684 132.087 371.782 132.367 371.82 132.666L371.498 132.554V130.65H372.954V138H371.498V136.25L371.834 136.152C371.778 136.404 371.661 136.651 371.484 136.894C371.316 137.127 371.096 137.337 370.826 137.524C370.564 137.711 370.27 137.86 369.944 137.972C369.626 138.084 369.29 138.14 368.936 138.14ZM369.314 136.81C369.752 136.81 370.14 136.703 370.476 136.488C370.812 136.273 371.073 135.979 371.26 135.606C371.456 135.223 371.554 134.789 371.554 134.304C371.554 133.828 371.456 133.403 371.26 133.03C371.073 132.657 370.812 132.363 370.476 132.148C370.14 131.933 369.752 131.826 369.314 131.826C368.884 131.826 368.502 131.933 368.166 132.148C367.839 132.363 367.578 132.657 367.382 133.03C367.195 133.403 367.102 133.828 367.102 134.304C367.102 134.789 367.195 135.223 367.382 135.606C367.578 135.979 367.839 136.273 368.166 136.488C368.502 136.703 368.884 136.81 369.314 136.81ZM375.205 138V130.65H376.647V138H375.205ZM375.905 129.026C375.597 129.026 375.359 128.947 375.191 128.788C375.023 128.629 374.939 128.405 374.939 128.116C374.939 127.845 375.023 127.626 375.191 127.458C375.368 127.29 375.606 127.206 375.905 127.206C376.213 127.206 376.451 127.285 376.619 127.444C376.787 127.603 376.871 127.827 376.871 128.116C376.871 128.387 376.782 128.606 376.605 128.774C376.437 128.942 376.204 129.026 375.905 129.026ZM382.167 138.14C381.449 138.14 380.805 137.977 380.235 137.65C379.675 137.314 379.232 136.861 378.905 136.292C378.579 135.713 378.415 135.055 378.415 134.318C378.415 133.581 378.579 132.927 378.905 132.358C379.232 131.779 379.675 131.327 380.235 131C380.805 130.664 381.449 130.496 382.167 130.496C382.877 130.496 383.511 130.664 384.071 131C384.641 131.327 385.089 131.779 385.415 132.358C385.742 132.927 385.905 133.581 385.905 134.318C385.905 135.055 385.742 135.713 385.415 136.292C385.089 136.861 384.641 137.314 384.071 137.65C383.511 137.977 382.877 138.14 382.167 138.14ZM382.167 136.824C382.606 136.824 382.998 136.717 383.343 136.502C383.689 136.278 383.959 135.979 384.155 135.606C384.351 135.223 384.445 134.794 384.435 134.318C384.445 133.833 384.351 133.403 384.155 133.03C383.959 132.647 383.689 132.349 383.343 132.134C382.998 131.919 382.606 131.812 382.167 131.812C381.729 131.812 381.332 131.924 380.977 132.148C380.632 132.363 380.361 132.661 380.165 133.044C379.969 133.417 379.876 133.842 379.885 134.318C379.876 134.794 379.969 135.223 380.165 135.606C380.361 135.979 380.632 136.278 380.977 136.502C381.332 136.717 381.729 136.824 382.167 136.824ZM386.023 139.848L391.791 128.2H393.177L387.423 139.848H386.023ZM394.443 138L393.981 136.852L396.977 133.478C397.135 133.31 397.299 133.119 397.467 132.904C397.644 132.68 397.812 132.451 397.971 132.218C398.129 131.985 398.255 131.756 398.349 131.532C398.451 131.299 398.503 131.079 398.503 130.874C398.503 130.575 398.442 130.323 398.321 130.118C398.209 129.903 398.041 129.74 397.817 129.628C397.602 129.516 397.341 129.46 397.033 129.46C396.762 129.46 396.496 129.539 396.235 129.698C395.973 129.857 395.735 130.081 395.521 130.37C395.306 130.659 395.138 130.995 395.017 131.378L393.855 130.65C394.013 130.109 394.251 129.647 394.569 129.264C394.895 128.872 395.283 128.573 395.731 128.368C396.188 128.163 396.683 128.06 397.215 128.06C397.765 128.06 398.255 128.177 398.685 128.41C399.114 128.634 399.45 128.951 399.693 129.362C399.935 129.763 400.057 130.23 400.057 130.762C400.057 130.977 400.033 131.196 399.987 131.42C399.94 131.644 399.865 131.877 399.763 132.12C399.66 132.353 399.529 132.601 399.371 132.862C399.212 133.114 399.021 133.38 398.797 133.66C398.582 133.94 398.335 134.234 398.055 134.542L395.829 136.964L395.549 136.544H400.365V138H394.443ZM402.113 138L401.651 136.852L404.647 133.478C404.805 133.31 404.969 133.119 405.137 132.904C405.314 132.68 405.482 132.451 405.641 132.218C405.799 131.985 405.925 131.756 406.019 131.532C406.121 131.299 406.173 131.079 406.173 130.874C406.173 130.575 406.112 130.323 405.991 130.118C405.879 129.903 405.711 129.74 405.487 129.628C405.272 129.516 405.011 129.46 404.703 129.46C404.432 129.46 404.166 129.539 403.905 129.698C403.643 129.857 403.405 130.081 403.191 130.37C402.976 130.659 402.808 130.995 402.687 131.378L401.525 130.65C401.683 130.109 401.921 129.647 402.239 129.264C402.565 128.872 402.953 128.573 403.401 128.368C403.858 128.163 404.353 128.06 404.885 128.06C405.435 128.06 405.925 128.177 406.355 128.41C406.784 128.634 407.12 128.951 407.363 129.362C407.605 129.763 407.727 130.23 407.727 130.762C407.727 130.977 407.703 131.196 407.657 131.42C407.61 131.644 407.535 131.877 407.433 132.12C407.33 132.353 407.199 132.601 407.041 132.862C406.882 133.114 406.691 133.38 406.467 133.66C406.252 133.94 406.005 134.234 405.725 134.542L403.499 136.964L403.219 136.544H408.035V138H402.113Z" fill="#95989D"/>
<path d="M430.584 138.14C430.267 138.14 429.963 138.098 429.674 138.014C429.385 137.93 429.114 137.809 428.862 137.65C428.619 137.491 428.4 137.305 428.204 137.09C428.008 136.866 427.84 136.623 427.7 136.362L428.652 135.368C428.848 135.648 429.025 135.872 429.184 136.04C429.352 136.208 429.511 136.339 429.66 136.432C429.809 136.525 429.959 136.591 430.108 136.628C430.257 136.656 430.416 136.67 430.584 136.67C430.92 136.67 431.214 136.595 431.466 136.446C431.718 136.287 431.914 136.073 432.054 135.802C432.194 135.531 432.264 135.223 432.264 134.878V129.6H430.472V128.2H435.288V129.6H433.776V135.018C433.776 135.466 433.697 135.881 433.538 136.264C433.389 136.637 433.169 136.964 432.88 137.244C432.6 137.524 432.264 137.743 431.872 137.902C431.489 138.061 431.06 138.14 430.584 138.14ZM438.869 138.14C438.346 138.14 437.889 138.019 437.497 137.776C437.114 137.533 436.816 137.193 436.601 136.754C436.396 136.315 436.293 135.793 436.293 135.186V130.65H437.735V134.794C437.735 135.223 437.8 135.597 437.931 135.914C438.071 136.222 438.267 136.46 438.519 136.628C438.78 136.796 439.093 136.88 439.457 136.88C439.728 136.88 439.975 136.838 440.199 136.754C440.423 136.661 440.614 136.535 440.773 136.376C440.941 136.217 441.072 136.026 441.165 135.802C441.258 135.578 441.305 135.335 441.305 135.074V130.65H442.747V138H441.305V136.46L441.557 136.292C441.445 136.637 441.254 136.95 440.983 137.23C440.722 137.51 440.409 137.734 440.045 137.902C439.681 138.061 439.289 138.14 438.869 138.14ZM444.77 138V130.65H446.212V132.162L445.96 132.33C446.053 132.003 446.235 131.705 446.506 131.434C446.776 131.154 447.098 130.93 447.472 130.762C447.845 130.585 448.228 130.496 448.62 130.496C449.18 130.496 449.646 130.608 450.02 130.832C450.393 131.047 450.673 131.378 450.86 131.826C451.046 132.274 451.14 132.839 451.14 133.52V138H449.698V133.618C449.698 133.198 449.642 132.853 449.53 132.582C449.418 132.302 449.245 132.101 449.012 131.98C448.778 131.849 448.489 131.793 448.144 131.812C447.864 131.812 447.607 131.859 447.374 131.952C447.14 132.036 446.935 132.157 446.758 132.316C446.59 132.475 446.454 132.661 446.352 132.876C446.258 133.081 446.212 133.305 446.212 133.548V138H445.498C445.376 138 445.255 138 445.134 138C445.012 138 444.891 138 444.77 138ZM453.096 138V127.64H454.538V132.162L454.286 132.33C454.379 132.003 454.561 131.705 454.832 131.434C455.103 131.154 455.425 130.93 455.798 130.762C456.171 130.585 456.554 130.496 456.946 130.496C457.506 130.496 457.973 130.608 458.346 130.832C458.719 131.047 458.999 131.378 459.186 131.826C459.373 132.274 459.466 132.839 459.466 133.52V138H458.024V133.618C458.024 133.198 457.968 132.853 457.856 132.582C457.744 132.302 457.571 132.101 457.338 131.98C457.105 131.849 456.815 131.793 456.47 131.812C456.19 131.812 455.933 131.859 455.7 131.952C455.467 132.036 455.261 132.157 455.084 132.316C454.916 132.475 454.781 132.661 454.678 132.876C454.585 133.081 454.538 133.305 454.538 133.548V138H453.824C453.703 138 453.581 138 453.46 138C453.339 138 453.217 138 453.096 138ZM464.726 138.14C464.007 138.14 463.363 137.977 462.794 137.65C462.234 137.314 461.791 136.861 461.464 136.292C461.137 135.713 460.974 135.055 460.974 134.318C460.974 133.581 461.137 132.927 461.464 132.358C461.791 131.779 462.234 131.327 462.794 131C463.363 130.664 464.007 130.496 464.726 130.496C465.435 130.496 466.07 130.664 466.63 131C467.199 131.327 467.647 131.779 467.974 132.358C468.301 132.927 468.464 133.581 468.464 134.318C468.464 135.055 468.301 135.713 467.974 136.292C467.647 136.861 467.199 137.314 466.63 137.65C466.07 137.977 465.435 138.14 464.726 138.14ZM464.726 136.824C465.165 136.824 465.557 136.717 465.902 136.502C466.247 136.278 466.518 135.979 466.714 135.606C466.91 135.223 467.003 134.794 466.994 134.318C467.003 133.833 466.91 133.403 466.714 133.03C466.518 132.647 466.247 132.349 465.902 132.134C465.557 131.919 465.165 131.812 464.726 131.812C464.287 131.812 463.891 131.924 463.536 132.148C463.191 132.363 462.92 132.661 462.724 133.044C462.528 133.417 462.435 133.842 462.444 134.318C462.435 134.794 462.528 135.223 462.724 135.606C462.92 135.979 463.191 136.278 463.536 136.502C463.891 136.717 464.287 136.824 464.726 136.824ZM468.582 139.848L474.35 128.2H475.736L469.982 139.848H468.582ZM477.001 138L476.539 136.852L479.535 133.478C479.694 133.31 479.857 133.119 480.025 132.904C480.203 132.68 480.371 132.451 480.529 132.218C480.688 131.985 480.814 131.756 480.907 131.532C481.01 131.299 481.061 131.079 481.061 130.874C481.061 130.575 481.001 130.323 480.879 130.118C480.767 129.903 480.599 129.74 480.375 129.628C480.161 129.516 479.899 129.46 479.591 129.46C479.321 129.46 479.055 129.539 478.793 129.698C478.532 129.857 478.294 130.081 478.079 130.37C477.865 130.659 477.697 130.995 477.575 131.378L476.413 130.65C476.572 130.109 476.81 129.647 477.127 129.264C477.454 128.872 477.841 128.573 478.289 128.368C478.747 128.163 479.241 128.06 479.773 128.06C480.324 128.06 480.814 128.177 481.243 128.41C481.673 128.634 482.009 128.951 482.251 129.362C482.494 129.763 482.615 130.23 482.615 130.762C482.615 130.977 482.592 131.196 482.545 131.42C482.499 131.644 482.424 131.877 482.321 132.12C482.219 132.353 482.088 132.601 481.929 132.862C481.771 133.114 481.579 133.38 481.355 133.66C481.141 133.94 480.893 134.234 480.613 134.542L478.387 136.964L478.107 136.544H482.923V138H477.001ZM484.671 138L484.209 136.852L487.205 133.478C487.364 133.31 487.527 133.119 487.695 132.904C487.872 132.68 488.04 132.451 488.199 132.218C488.358 131.985 488.484 131.756 488.577 131.532C488.68 131.299 488.731 131.079 488.731 130.874C488.731 130.575 488.67 130.323 488.549 130.118C488.437 129.903 488.269 129.74 488.045 129.628C487.83 129.516 487.569 129.46 487.261 129.46C486.99 129.46 486.724 129.539 486.463 129.698C486.202 129.857 485.964 130.081 485.749 130.37C485.534 130.659 485.366 130.995 485.245 131.378L484.083 130.65C484.242 130.109 484.48 129.647 484.797 129.264C485.124 128.872 485.511 128.573 485.959 128.368C486.416 128.163 486.911 128.06 487.443 128.06C487.994 128.06 488.484 128.177 488.913 128.41C489.342 128.634 489.678 128.951 489.921 129.362C490.164 129.763 490.285 130.23 490.285 130.762C490.285 130.977 490.262 131.196 490.215 131.42C490.168 131.644 490.094 131.877 489.991 132.12C489.888 132.353 489.758 132.601 489.599 132.862C489.44 133.114 489.249 133.38 489.025 133.66C488.81 133.94 488.563 134.234 488.283 134.542L486.057 136.964L485.777 136.544H490.593V138H484.671Z" fill="#95989D"/>
<path d="M513.584 138.14C513.267 138.14 512.963 138.098 512.674 138.014C512.385 137.93 512.114 137.809 511.862 137.65C511.619 137.491 511.4 137.305 511.204 137.09C511.008 136.866 510.84 136.623 510.7 136.362L511.652 135.368C511.848 135.648 512.025 135.872 512.184 136.04C512.352 136.208 512.511 136.339 512.66 136.432C512.809 136.525 512.959 136.591 513.108 136.628C513.257 136.656 513.416 136.67 513.584 136.67C513.92 136.67 514.214 136.595 514.466 136.446C514.718 136.287 514.914 136.073 515.054 135.802C515.194 135.531 515.264 135.223 515.264 134.878V129.6H513.472V128.2H518.288V129.6H516.776V135.018C516.776 135.466 516.697 135.881 516.538 136.264C516.389 136.637 516.169 136.964 515.88 137.244C515.6 137.524 515.264 137.743 514.872 137.902C514.489 138.061 514.06 138.14 513.584 138.14ZM521.869 138.14C521.346 138.14 520.889 138.019 520.497 137.776C520.114 137.533 519.816 137.193 519.601 136.754C519.396 136.315 519.293 135.793 519.293 135.186V130.65H520.735V134.794C520.735 135.223 520.8 135.597 520.931 135.914C521.071 136.222 521.267 136.46 521.519 136.628C521.78 136.796 522.093 136.88 522.457 136.88C522.728 136.88 522.975 136.838 523.199 136.754C523.423 136.661 523.614 136.535 523.773 136.376C523.941 136.217 524.072 136.026 524.165 135.802C524.258 135.578 524.305 135.335 524.305 135.074V130.65H525.747V138H524.305V136.46L524.557 136.292C524.445 136.637 524.254 136.95 523.983 137.23C523.722 137.51 523.409 137.734 523.045 137.902C522.681 138.061 522.289 138.14 521.869 138.14ZM527.798 138V127.64H529.24V138H527.798ZM531.283 138V127.64H532.725V132.162L532.473 132.33C532.567 132.003 532.749 131.705 533.019 131.434C533.29 131.154 533.612 130.93 533.985 130.762C534.359 130.585 534.741 130.496 535.133 130.496C535.693 130.496 536.16 130.608 536.533 130.832C536.907 131.047 537.187 131.378 537.373 131.826C537.56 132.274 537.653 132.839 537.653 133.52V138H536.211V133.618C536.211 133.198 536.155 132.853 536.043 132.582C535.931 132.302 535.759 132.101 535.525 131.98C535.292 131.849 535.003 131.793 534.657 131.812C534.377 131.812 534.121 131.859 533.887 131.952C533.654 132.036 533.449 132.157 533.271 132.316C533.103 132.475 532.968 132.661 532.865 132.876C532.772 133.081 532.725 133.305 532.725 133.548V138H532.011C531.89 138 531.769 138 531.647 138C531.526 138 531.405 138 531.283 138ZM542.914 138.14C542.195 138.14 541.551 137.977 540.982 137.65C540.422 137.314 539.978 136.861 539.652 136.292C539.325 135.713 539.162 135.055 539.162 134.318C539.162 133.581 539.325 132.927 539.652 132.358C539.978 131.779 540.422 131.327 540.982 131C541.551 130.664 542.195 130.496 542.914 130.496C543.623 130.496 544.258 130.664 544.818 131C545.387 131.327 545.835 131.779 546.162 132.358C546.488 132.927 546.652 133.581 546.652 134.318C546.652 135.055 546.488 135.713 546.162 136.292C545.835 136.861 545.387 137.314 544.818 137.65C544.258 137.977 543.623 138.14 542.914 138.14ZM542.914 136.824C543.352 136.824 543.744 136.717 544.09 136.502C544.435 136.278 544.706 135.979 544.902 135.606C545.098 135.223 545.191 134.794 545.182 134.318C545.191 133.833 545.098 133.403 544.902 133.03C544.706 132.647 544.435 132.349 544.09 132.134C543.744 131.919 543.352 131.812 542.914 131.812C542.475 131.812 542.078 131.924 541.724 132.148C541.378 132.363 541.108 132.661 540.912 133.044C540.716 133.417 540.622 133.842 540.632 134.318C540.622 134.794 540.716 135.223 540.912 135.606C541.108 135.979 541.378 136.278 541.724 136.502C542.078 136.717 542.475 136.824 542.914 136.824ZM546.77 139.848L552.538 128.2H553.924L548.17 139.848H546.77ZM555.189 138L554.727 136.852L557.723 133.478C557.881 133.31 558.045 133.119 558.213 132.904C558.39 132.68 558.558 132.451 558.717 132.218C558.875 131.985 559.001 131.756 559.095 131.532C559.197 131.299 559.249 131.079 559.249 130.874C559.249 130.575 559.188 130.323 559.067 130.118C558.955 129.903 558.787 129.74 558.563 129.628C558.348 129.516 558.087 129.46 557.779 129.46C557.508 129.46 557.242 129.539 556.981 129.698C556.719 129.857 556.481 130.081 556.267 130.37C556.052 130.659 555.884 130.995 555.763 131.378L554.601 130.65C554.759 130.109 554.997 129.647 555.315 129.264C555.641 128.872 556.029 128.573 556.477 128.368C556.934 128.163 557.429 128.06 557.961 128.06C558.511 128.06 559.001 128.177 559.431 128.41C559.86 128.634 560.196 128.951 560.439 129.362C560.681 129.763 560.803 130.23 560.803 130.762C560.803 130.977 560.779 131.196 560.733 131.42C560.686 131.644 560.611 131.877 560.509 132.12C560.406 132.353 560.275 132.601 560.117 132.862C559.958 133.114 559.767 133.38 559.543 133.66C559.328 133.94 559.081 134.234 558.801 134.542L556.575 136.964L556.295 136.544H561.111V138H555.189ZM562.859 138L562.397 136.852L565.393 133.478C565.551 133.31 565.715 133.119 565.883 132.904C566.06 132.68 566.228 132.451 566.387 132.218C566.545 131.985 566.671 131.756 566.765 131.532C566.867 131.299 566.919 131.079 566.919 130.874C566.919 130.575 566.858 130.323 566.737 130.118C566.625 129.903 566.457 129.74 566.233 129.628C566.018 129.516 565.757 129.46 565.449 129.46C565.178 129.46 564.912 129.539 564.651 129.698C564.389 129.857 564.151 130.081 563.937 130.37C563.722 130.659 563.554 130.995 563.433 131.378L562.271 130.65C562.429 130.109 562.667 129.647 562.985 129.264C563.311 128.872 563.699 128.573 564.147 128.368C564.604 128.163 565.099 128.06 565.631 128.06C566.181 128.06 566.671 128.177 567.101 128.41C567.53 128.634 567.866 128.951 568.109 129.362C568.351 129.763 568.473 130.23 568.473 130.762C568.473 130.977 568.449 131.196 568.403 131.42C568.356 131.644 568.281 131.877 568.179 132.12C568.076 132.353 567.945 132.601 567.787 132.862C567.628 133.114 567.437 133.38 567.213 133.66C566.998 133.94 566.751 134.234 566.471 134.542L564.245 136.964L563.965 136.544H568.781V138H562.859Z" fill="#95989D"/>
<path d="M589.35 138L593.144 128.2H594.684L598.45 138H596.84L594.6 132.092C594.572 132.027 594.516 131.868 594.432 131.616C594.357 131.364 594.269 131.084 594.166 130.776C594.063 130.468 593.97 130.188 593.886 129.936C593.802 129.675 593.746 129.507 593.718 129.432L594.04 129.418C593.984 129.577 593.914 129.777 593.83 130.02C593.755 130.263 593.671 130.519 593.578 130.79C593.494 131.061 593.41 131.317 593.326 131.56C593.242 131.793 593.172 131.989 593.116 132.148L590.89 138H589.35ZM591.03 135.564L591.59 134.108H596.042L596.686 135.564H591.03ZM602.964 141.22C602.441 141.22 601.919 141.136 601.396 140.968C600.883 140.809 600.467 140.599 600.15 140.338L600.682 139.218C600.869 139.358 601.088 139.479 601.34 139.582C601.592 139.694 601.858 139.778 602.138 139.834C602.418 139.899 602.693 139.932 602.964 139.932C603.477 139.932 603.907 139.848 604.252 139.68C604.597 139.512 604.859 139.265 605.036 138.938C605.213 138.611 605.302 138.205 605.302 137.72V136.306L605.456 136.404C605.409 136.693 605.255 136.973 604.994 137.244C604.742 137.505 604.425 137.72 604.042 137.888C603.659 138.056 603.267 138.14 602.866 138.14C602.166 138.14 601.541 137.977 600.99 137.65C600.449 137.314 600.019 136.861 599.702 136.292C599.385 135.713 599.226 135.055 599.226 134.318C599.226 133.581 599.38 132.927 599.688 132.358C600.005 131.779 600.435 131.327 600.976 131C601.527 130.664 602.143 130.496 602.824 130.496C603.104 130.496 603.375 130.533 603.636 130.608C603.897 130.673 604.14 130.771 604.364 130.902C604.588 131.023 604.789 131.159 604.966 131.308C605.143 131.457 605.288 131.616 605.4 131.784C605.512 131.952 605.582 132.111 605.61 132.26L605.302 132.372V130.65H606.744V137.552C606.744 138.14 606.655 138.658 606.478 139.106C606.31 139.563 606.063 139.946 605.736 140.254C605.409 140.571 605.013 140.809 604.546 140.968C604.079 141.136 603.552 141.22 602.964 141.22ZM603.02 136.81C603.477 136.81 603.883 136.703 604.238 136.488C604.593 136.273 604.868 135.979 605.064 135.606C605.26 135.233 605.358 134.803 605.358 134.318C605.358 133.833 605.255 133.403 605.05 133.03C604.854 132.647 604.579 132.349 604.224 132.134C603.879 131.919 603.477 131.812 603.02 131.812C602.572 131.812 602.171 131.924 601.816 132.148C601.471 132.363 601.195 132.661 600.99 133.044C600.794 133.417 600.696 133.842 600.696 134.318C600.696 134.794 600.794 135.223 600.99 135.606C601.195 135.979 601.471 136.273 601.816 136.488C602.171 136.703 602.572 136.81 603.02 136.81ZM612.07 138.14C611.351 138.14 610.707 137.977 610.138 137.65C609.578 137.314 609.134 136.861 608.808 136.292C608.481 135.713 608.318 135.055 608.318 134.318C608.318 133.581 608.481 132.927 608.808 132.358C609.134 131.779 609.578 131.327 610.138 131C610.707 130.664 611.351 130.496 612.07 130.496C612.779 130.496 613.414 130.664 613.974 131C614.543 131.327 614.991 131.779 615.318 132.358C615.644 132.927 615.808 133.581 615.808 134.318C615.808 135.055 615.644 135.713 615.318 136.292C614.991 136.861 614.543 137.314 613.974 137.65C613.414 137.977 612.779 138.14 612.07 138.14ZM612.07 136.824C612.508 136.824 612.9 136.717 613.246 136.502C613.591 136.278 613.862 135.979 614.058 135.606C614.254 135.223 614.347 134.794 614.338 134.318C614.347 133.833 614.254 133.403 614.058 133.03C613.862 132.647 613.591 132.349 613.246 132.134C612.9 131.919 612.508 131.812 612.07 131.812C611.631 131.812 611.234 131.924 610.88 132.148C610.534 132.363 610.264 132.661 610.068 133.044C609.872 133.417 609.778 133.842 609.788 134.318C609.778 134.794 609.872 135.223 610.068 135.606C610.264 135.979 610.534 136.278 610.88 136.502C611.234 136.717 611.631 136.824 612.07 136.824ZM619.829 138.14C619.213 138.14 618.658 138.033 618.163 137.818C617.668 137.603 617.258 137.286 616.931 136.866L617.911 136.026C618.191 136.353 618.494 136.591 618.821 136.74C619.157 136.88 619.535 136.95 619.955 136.95C620.123 136.95 620.277 136.931 620.417 136.894C620.566 136.847 620.692 136.782 620.795 136.698C620.907 136.614 620.991 136.516 621.047 136.404C621.103 136.283 621.131 136.152 621.131 136.012C621.131 135.769 621.042 135.573 620.865 135.424C620.772 135.359 620.622 135.289 620.417 135.214C620.221 135.13 619.964 135.046 619.647 134.962C619.106 134.822 618.662 134.663 618.317 134.486C617.972 134.309 617.706 134.108 617.519 133.884C617.379 133.707 617.276 133.515 617.211 133.31C617.146 133.095 617.113 132.862 617.113 132.61C617.113 132.302 617.178 132.022 617.309 131.77C617.449 131.509 617.636 131.285 617.869 131.098C618.112 130.902 618.392 130.753 618.709 130.65C619.036 130.547 619.381 130.496 619.745 130.496C620.09 130.496 620.431 130.543 620.767 130.636C621.112 130.729 621.43 130.865 621.719 131.042C622.008 131.219 622.251 131.429 622.447 131.672L621.621 132.582C621.444 132.405 621.248 132.251 621.033 132.12C620.828 131.98 620.618 131.873 620.403 131.798C620.188 131.723 619.992 131.686 619.815 131.686C619.619 131.686 619.442 131.705 619.283 131.742C619.124 131.779 618.989 131.835 618.877 131.91C618.774 131.985 618.695 132.078 618.639 132.19C618.583 132.302 618.555 132.428 618.555 132.568C618.564 132.689 618.592 132.806 618.639 132.918C618.695 133.021 618.77 133.109 618.863 133.184C618.966 133.259 619.12 133.338 619.325 133.422C619.53 133.506 619.792 133.585 620.109 133.66C620.576 133.781 620.958 133.917 621.257 134.066C621.565 134.206 621.808 134.369 621.985 134.556C622.172 134.733 622.302 134.939 622.377 135.172C622.452 135.405 622.489 135.667 622.489 135.956C622.489 136.376 622.368 136.754 622.125 137.09C621.892 137.417 621.574 137.673 621.173 137.86C620.772 138.047 620.324 138.14 619.829 138.14ZM624.988 138V128.774H626.43V138H624.988ZM623.462 132.05V130.65H628.138V132.05H623.462ZM632.687 138.14C631.968 138.14 631.324 137.977 630.755 137.65C630.195 137.314 629.752 136.861 629.425 136.292C629.098 135.713 628.935 135.055 628.935 134.318C628.935 133.581 629.098 132.927 629.425 132.358C629.752 131.779 630.195 131.327 630.755 131C631.324 130.664 631.968 130.496 632.687 130.496C633.396 130.496 634.031 130.664 634.591 131C635.16 131.327 635.608 131.779 635.935 132.358C636.262 132.927 636.425 133.581 636.425 134.318C636.425 135.055 636.262 135.713 635.935 136.292C635.608 136.861 635.16 137.314 634.591 137.65C634.031 137.977 633.396 138.14 632.687 138.14ZM632.687 136.824C633.126 136.824 633.518 136.717 633.863 136.502C634.208 136.278 634.479 135.979 634.675 135.606C634.871 135.223 634.964 134.794 634.955 134.318C634.964 133.833 634.871 133.403 634.675 133.03C634.479 132.647 634.208 132.349 633.863 132.134C633.518 131.919 633.126 131.812 632.687 131.812C632.248 131.812 631.852 131.924 631.497 132.148C631.152 132.363 630.881 132.661 630.685 133.044C630.489 133.417 630.396 133.842 630.405 134.318C630.396 134.794 630.489 135.223 630.685 135.606C630.881 135.979 631.152 136.278 631.497 136.502C631.852 136.717 632.248 136.824 632.687 136.824ZM636.543 139.848L642.311 128.2H643.697L637.943 139.848H636.543ZM644.962 138L644.5 136.852L647.496 133.478C647.655 133.31 647.818 133.119 647.986 132.904C648.163 132.68 648.331 132.451 648.49 132.218C648.649 131.985 648.775 131.756 648.868 131.532C648.971 131.299 649.022 131.079 649.022 130.874C649.022 130.575 648.961 130.323 648.84 130.118C648.728 129.903 648.56 129.74 648.336 129.628C648.121 129.516 647.86 129.46 647.552 129.46C647.281 129.46 647.015 129.539 646.754 129.698C646.493 129.857 646.255 130.081 646.04 130.37C645.825 130.659 645.657 130.995 645.536 131.378L644.374 130.65C644.533 130.109 644.771 129.647 645.088 129.264C645.415 128.872 645.802 128.573 646.25 128.368C646.707 128.163 647.202 128.06 647.734 128.06C648.285 128.06 648.775 128.177 649.204 128.41C649.633 128.634 649.969 128.951 650.212 129.362C650.455 129.763 650.576 130.23 650.576 130.762C650.576 130.977 650.553 131.196 650.506 131.42C650.459 131.644 650.385 131.877 650.282 132.12C650.179 132.353 650.049 132.601 649.89 132.862C649.731 133.114 649.54 133.38 649.316 133.66C649.101 133.94 648.854 134.234 648.574 134.542L646.348 136.964L646.068 136.544H650.884V138H644.962ZM652.632 138L652.17 136.852L655.166 133.478C655.325 133.31 655.488 133.119 655.656 132.904C655.833 132.68 656.001 132.451 656.16 132.218C656.319 131.985 656.445 131.756 656.538 131.532C656.641 131.299 656.692 131.079 656.692 130.874C656.692 130.575 656.631 130.323 656.51 130.118C656.398 129.903 656.23 129.74 656.006 129.628C655.791 129.516 655.53 129.46 655.222 129.46C654.951 129.46 654.685 129.539 654.424 129.698C654.163 129.857 653.925 130.081 653.71 130.37C653.495 130.659 653.327 130.995 653.206 131.378L652.044 130.65C652.203 130.109 652.441 129.647 652.758 129.264C653.085 128.872 653.472 128.573 653.92 128.368C654.377 128.163 654.872 128.06 655.404 128.06C655.955 128.06 656.445 128.177 656.874 128.41C657.303 128.634 657.639 128.951 657.882 129.362C658.125 129.763 658.246 130.23 658.246 130.762C658.246 130.977 658.223 131.196 658.176 131.42C658.129 131.644 658.055 131.877 657.952 132.12C657.849 132.353 657.719 132.601 657.56 132.862C657.401 133.114 657.21 133.38 656.986 133.66C656.771 133.94 656.524 134.234 656.244 134.542L654.018 136.964L653.738 136.544H658.554V138H652.632Z" fill="#95989D"/>
<path fill-rule="evenodd" clip-rule="evenodd" d="M507.059 18.9999L452.637 55.0215L452.59 54.9517L452.528 55.1919L387.757 38.4409L297.6 45.5366L297.57 45.6479L297.256 45.564L296.845 45.5962L296.833 45.4507L214.788 23.4663L125.871 47.2915L125.728 46.7588L0 31.3213V116.194H659V45.7912L507.059 18.9999Z" fill="url(#paint0_linear_606_503)"/>
<defs>
<linearGradient id="paint0_linear_606_503" x1="330" y1="53.5" x2="330" y2="179" gradientUnits="userSpaceOnUse">
<stop offset="0.166667" stop-color="#171F2B"/>
<stop offset="1" stop-color="#AACCD2"/>
</linearGradient>
</defs>
</svg>
